<?xml version="1.0" encoding="UTF-8"?>
<svg xmlns="http://www.w3.org/2000/svg" width="400" height="400" viewBox="0 0 400 400" fill="none">
  <rect width="400" height="400" fill="#F5F5F5"/>
  <g clip-path="url(#clip0_0_1)">
    <path d="M400 0H0V400H400V0Z" fill="url(#paint0_linear_0_1)"/>
    <g filter="url(#filter0_d_0_1)">
      <path d="M343.732 177.504L215.55 252.058C210.911 254.417 205.78 255.646 200.575 255.646C195.371 255.646 190.24 254.417 185.601 252.058L56.4803 177.504C54.7552 176.742 53.2664 175.53 52.1691 173.996C51.0719 172.462 50.4065 170.662 50.2423 168.783L50 222.2C50.1712 224.085 50.8424 225.889 51.9443 227.428C53.0463 228.966 54.539 230.183 56.2683 230.951L185.389 305.505C190.023 307.863 195.149 309.093 200.348 309.093C205.548 309.093 210.674 307.863 215.307 305.505L343.732 230.951C345.406 230.174 346.847 228.97 347.91 227.461C348.972 225.952 349.62 224.19 349.788 222.351L350 168.904C349.818 170.767 349.141 172.547 348.039 174.059C346.937 175.572 345.449 176.761 343.732 177.504Z" fill="url(#paint1_linear_0_1)"/>
      <path d="M343.732 160.153C352.029 164.968 352.059 172.72 343.732 177.504L215.55 252.058C210.911 254.417 205.78 255.646 200.575 255.646C195.371 255.646 190.24 254.417 185.601 252.058L56.4802 177.504C48.1831 172.871 48.1225 164.968 56.3894 160.183L184.662 85.5996C189.299 83.2336 194.431 82 199.637 82C204.842 82 209.974 83.2336 214.611 85.5996L343.732 160.153Z" fill="url(#paint2_linear_0_1)"/>
      <path d="M237.746 264.111C237.637 265.741 237.155 267.323 236.335 268.736C235.516 270.149 234.382 271.353 233.022 272.257C230.357 273.771 228.207 272.56 228.207 269.501C228.303 267.842 228.789 266.228 229.626 264.792C230.462 263.356 231.626 262.137 233.022 261.235C235.657 259.842 237.746 261.053 237.746 264.111Z" fill="url(#paint3_linear_0_1)"/>
      <path d="M265.999 249.728C265.91 251.389 265.427 253.005 264.59 254.443C263.753 255.88 262.585 257.098 261.184 257.995C258.55 259.539 256.4 258.297 256.4 255.269C256.492 253.612 256.973 252.001 257.805 250.564C258.636 249.128 259.794 247.908 261.184 247.002C263.849 245.458 265.999 246.699 265.999 249.728Z" fill="url(#paint4_linear_0_1)"/>
      <path d="M294.161 235.374C294.063 237.03 293.58 238.64 292.749 240.075C291.919 241.511 290.763 242.732 289.376 243.641C286.711 245.155 284.561 243.944 284.561 240.916C284.655 239.251 285.14 237.633 285.976 236.191C286.813 234.749 287.978 233.525 289.376 232.618C292.011 231.104 294.161 232.316 294.161 235.374Z" fill="url(#paint5_linear_0_1)"/>
      <path d="M322.353 220.99C322.264 222.652 321.781 224.268 320.944 225.705C320.107 227.143 318.939 228.36 317.538 229.257C314.904 230.802 312.754 229.56 312.754 226.532C312.846 224.875 313.327 223.263 314.159 221.827C314.99 220.391 316.148 219.171 317.538 218.265C320.203 216.721 322.353 217.962 322.353 220.99Z" fill="url(#paint6_linear_0_1)"/>
      <path d="M295.336 150.821L295.272 170.754L199.674 226.606L199.737 206.672L295.336 150.821Z" fill="url(#paint7_linear_0_1)"/>
      <path d="M200.916 206.672L200.852 226.606L104.011 170.754L104.043 150.821L200.916 206.672Z" fill="url(#paint8_linear_0_1)"/>
      <path d="M295.336 151.426L199.992 206.728L104.011 151.426L199.355 96.157L295.336 151.426Z" fill="white"/>
      <mask id="mask0_0_1" style="mask-type:luminance" maskUnits="userSpaceOnUse" x="153" y="121" width="92" height="59">
        <path d="M244.544 121.004H153.562V179.395H244.544V121.004Z" fill="white"/>
      </mask>
      <g mask="url(#mask0_0_1)">
        <path d="M170.741 138.9C170.741 138.9 153.879 138.325 154.161 154.172C154.443 170.019 171.227 169.831 175.908 164.482C175.908 164.482 178.876 178.803 195.546 178.803C212.216 178.803 216.885 166.344 216.885 166.344C216.885 166.344 233.406 175.796 241.594 159.885C249.782 143.973 234.575 133.745 225.224 138.425C225.224 138.425 214.985 122.384 199.88 133.076C199.88 133.076 195.684 130.534 191.176 135.049C191.176 135.049 179.025 125.537 170.741 138.9Z" fill="white"/>
        <path d="M195.522 177.17C183.731 177.17 178.798 169.972 176.939 165.786C176.768 165.321 176.626 164.846 176.514 164.365C176.498 164.285 176.465 164.209 176.417 164.143C176.37 164.076 176.309 164.02 176.238 163.977C176.111 163.608 176.005 163.231 175.92 162.85C174.176 164.84 170.759 166.115 167.145 166.115C162.679 166.115 157.901 164.171 155.594 159.221C155.061 157.584 154.78 155.879 154.76 154.16C154.692 152.112 155.015 150.068 155.713 148.136C155.713 148.406 155.713 148.688 155.713 148.976C155.893 158.581 162.337 162.104 168.23 162.104C170.373 162.124 172.49 161.641 174.404 160.695C174.746 160.513 175.129 160.419 175.519 160.419C175.981 160.417 176.433 160.548 176.82 160.796C177.206 161.043 177.511 161.396 177.695 161.811C179.493 165.856 184.288 172.779 195.678 172.779C207.702 172.755 213.265 166.026 215.303 162.633C215.599 162.144 216.066 161.778 216.617 161.601C217.168 161.424 217.766 161.448 218.3 161.67C220.915 162.776 223.724 163.374 226.572 163.431C231.254 163.431 236.547 161.529 240.155 154.518C241.556 151.946 242.327 149.09 242.409 146.175C243.68 149.369 243.608 153.103 242.247 156.967C242.056 157.401 241.846 157.836 241.648 158.282C237.908 165.539 232.429 167.512 227.579 167.512C223.858 167.416 220.212 166.461 216.939 164.723C216.939 164.723 212.21 177.17 195.522 177.17Z" fill="#B1B2D2"/>
        <path d="M168.649 151.741C168.649 151.741 168.463 149.187 171.604 147.385L171.874 147.725C171.396 148.568 171.278 149.562 171.544 150.491C170.566 150.858 169.607 151.276 168.673 151.741M233.118 149.604C231.987 149.168 230.805 148.872 229.599 148.723C229.972 147.35 230.077 145.92 229.911 144.508C230.799 145.07 231.548 145.819 232.103 146.701C232.658 147.582 233.005 148.574 233.118 149.604Z" fill="#B1B2D2"/>
        <path d="M175.908 163.866C175.958 163.86 176.008 163.86 176.058 163.866C176.169 163.893 176.27 163.95 176.348 164.031C176.427 164.113 176.48 164.214 176.502 164.324C177.16 166.852 178.346 169.219 179.984 171.275C183.617 175.849 188.85 178.169 195.57 178.169C202.289 178.169 207.804 176.196 212 172.191C213.841 170.48 215.309 168.42 216.316 166.138C216.347 166.056 216.395 165.983 216.458 165.922C216.522 165.861 216.598 165.814 216.682 165.786C216.765 165.756 216.854 165.745 216.942 165.753C217.03 165.761 217.115 165.789 217.191 165.833C217.269 165.874 224.66 170.019 231.757 167.964C235.684 166.831 238.789 164.024 241.079 159.632C244.579 152.833 243.962 146.128 239.43 141.719C235.552 137.932 229.839 136.799 225.517 138.953C225.383 139.021 225.227 139.036 225.081 138.996C224.935 138.955 224.811 138.863 224.732 138.736C224.684 138.666 220.11 131.638 212.797 130.24C208.697 129.453 204.477 130.569 200.257 133.558C200.158 133.623 200.041 133.658 199.922 133.658C199.802 133.658 199.685 133.623 199.586 133.558C199.43 133.469 195.702 131.338 191.631 135.442C191.527 135.548 191.386 135.611 191.236 135.62C191.086 135.629 190.939 135.582 190.822 135.489C190.768 135.448 185.643 131.508 179.996 132.495C176.598 133.082 173.666 135.337 171.281 139.182C171.226 139.273 171.146 139.348 171.051 139.399C170.956 139.45 170.849 139.474 170.741 139.47C170.651 139.47 163.224 139.282 158.579 143.768C155.959 146.287 154.694 149.774 154.76 154.16C154.916 162.48 159.694 165.398 162.553 166.396C164.934 167.206 167.492 167.374 169.962 166.884C172.3 166.42 174.302 165.404 175.447 164.095C175.504 164.03 175.575 163.977 175.654 163.942C175.734 163.906 175.821 163.888 175.908 163.889M195.522 179.396C186.662 179.396 181.633 175.38 178.971 172.009C177.475 170.09 176.331 167.931 175.591 165.627C172.492 168.269 166.743 169.15 162.139 167.506C159.01 166.408 153.729 163.214 153.562 154.184C153.472 149.487 154.868 145.67 157.704 142.94C162.193 138.619 168.787 138.313 170.406 138.302C172.947 134.327 176.094 131.984 179.769 131.35C185.032 130.434 189.695 133.282 191.116 134.286C193.46 132.119 195.72 131.726 197.236 131.79C198.132 131.822 199.013 132.021 199.832 132.377C204.237 129.348 208.667 128.267 213.019 129.066C219.829 130.399 224.294 136.018 225.433 137.662C230.139 135.595 236.157 136.875 240.263 140.873C242.512 143.058 243.961 145.908 244.387 148.982C244.897 152.505 244.136 156.28 242.134 160.167C239.736 164.864 236.337 167.876 232.093 169.103C225.619 170.976 219.163 168.17 217.185 167.177C216.12 169.349 214.671 171.319 212.905 172.996C209.86 175.932 204.375 179.396 195.564 179.396" fill="#020A70"/>
        <path d="M228.94 148.764C228.323 151.03 227.206 153.135 225.669 154.932C224.133 156.73 222.213 158.176 220.044 159.169C212.54 162.691 198.105 167.389 188.365 158.223C186.358 156.334 184.898 153.957 184.133 151.336C183.707 149.928 183.505 148.465 183.533 146.997C183.623 143.662 184.888 139.858 189.342 137.421C191.379 136.335 193.67 135.786 195.99 135.829C198.309 135.873 200.577 136.506 202.571 137.667C204.456 138.768 206.589 139.393 208.781 139.488C210.771 139.546 212.516 138.9 214.26 138.261C217.605 137.028 220.968 135.8 226.129 139.488C226.902 140.03 227.572 140.702 228.107 141.472C229.605 143.674 229.563 146.316 228.916 148.764" fill="#3AA7F8"/>
        <path d="M221.645 140.727L222.011 141.132C222.091 141.217 222.197 141.276 222.313 141.299C222.429 141.322 222.55 141.309 222.658 141.261L223.168 141.044C223.276 140.994 223.397 140.981 223.514 141.004C223.63 141.027 223.736 141.087 223.816 141.173C223.896 141.26 223.945 141.369 223.957 141.486C223.968 141.602 223.942 141.718 223.881 141.819L223.605 142.288C223.551 142.391 223.529 142.507 223.542 142.622C223.554 142.737 223.601 142.845 223.677 142.934L224.049 143.333C224.128 143.42 224.178 143.529 224.191 143.645C224.203 143.76 224.178 143.877 224.119 143.978C224.06 144.079 223.97 144.159 223.861 144.207C223.753 144.254 223.632 144.267 223.515 144.243L222.976 144.132C222.86 144.114 222.742 144.129 222.636 144.176C222.529 144.223 222.439 144.3 222.376 144.396L222.101 144.866C222.041 144.967 221.951 145.047 221.842 145.095C221.733 145.142 221.612 145.155 221.495 145.131C221.379 145.107 221.273 145.047 221.193 144.961C221.114 144.874 221.064 144.765 221.052 144.649L220.998 144.114C220.98 144 220.929 143.894 220.85 143.808C220.771 143.723 220.668 143.662 220.554 143.633L220.009 143.521C219.892 143.498 219.785 143.438 219.705 143.352C219.625 143.265 219.575 143.156 219.562 143.039C219.55 142.923 219.575 142.806 219.635 142.705C219.695 142.604 219.786 142.524 219.895 142.476L220.398 142.259C220.512 142.211 220.606 142.127 220.666 142.021C220.725 141.914 220.747 141.792 220.728 141.672L220.674 141.132C220.662 141.016 220.687 140.9 220.746 140.799C220.806 140.698 220.896 140.618 221.004 140.571C221.112 140.523 221.233 140.511 221.349 140.534C221.466 140.558 221.571 140.617 221.651 140.703L221.645 140.727Z" fill="white"/>
        <path d="M198.753 152.833V153.374C198.753 153.485 198.788 153.594 198.854 153.685C198.919 153.776 199.011 153.846 199.118 153.884L199.64 154.066C199.753 154.102 199.853 154.172 199.923 154.267C199.993 154.361 200.031 154.475 200.031 154.592C200.031 154.709 199.993 154.823 199.923 154.917C199.853 155.011 199.753 155.082 199.64 155.117L199.106 155.27C198.992 155.302 198.892 155.368 198.819 155.46C198.747 155.552 198.707 155.665 198.705 155.781V156.321C198.702 156.438 198.661 156.551 198.588 156.644C198.515 156.737 198.414 156.804 198.299 156.837C198.184 156.869 198.062 156.866 197.949 156.826C197.837 156.786 197.74 156.712 197.674 156.615L197.32 156.192C197.256 156.098 197.164 156.027 197.056 155.988C196.949 155.949 196.831 155.944 196.721 155.975L196.187 156.127C196.073 156.159 195.951 156.155 195.84 156.115C195.728 156.075 195.633 156.002 195.566 155.905C195.5 155.809 195.466 155.695 195.47 155.578C195.474 155.462 195.515 155.35 195.588 155.258L195.929 154.83C195.999 154.736 196.037 154.623 196.037 154.507C196.037 154.391 195.999 154.277 195.929 154.184L195.618 153.738C195.568 153.639 195.548 153.529 195.559 153.419C195.571 153.31 195.613 153.206 195.682 153.119C195.751 153.032 195.843 152.966 195.948 152.928C196.053 152.89 196.167 152.882 196.277 152.904L196.793 153.086C196.904 153.127 197.025 153.132 197.14 153.1C197.254 153.068 197.355 153.002 197.428 152.91L197.77 152.481C197.843 152.39 197.943 152.323 198.057 152.291C198.17 152.259 198.291 152.263 198.403 152.302C198.514 152.34 198.61 152.413 198.677 152.508C198.745 152.604 198.779 152.718 198.777 152.833" fill="white"/>
        <path d="M205.952 141.22L206.09 141.496C206.12 141.554 206.168 141.601 206.227 141.632C206.286 141.662 206.353 141.674 206.419 141.666L206.731 141.625C206.798 141.615 206.866 141.627 206.926 141.658C206.985 141.689 207.033 141.738 207.063 141.797C207.092 141.857 207.102 141.924 207.089 141.989C207.077 142.054 207.044 142.114 206.995 142.159L206.767 142.37C206.718 142.415 206.686 142.474 206.674 142.539C206.662 142.603 206.671 142.67 206.701 142.729L206.839 143.005C206.869 143.064 206.879 143.131 206.867 143.196C206.856 143.262 206.823 143.322 206.774 143.367C206.725 143.413 206.663 143.443 206.596 143.451C206.529 143.46 206.461 143.447 206.401 143.416L206.126 143.269C206.066 143.24 205.998 143.229 205.931 143.238C205.865 143.248 205.803 143.277 205.754 143.322L205.532 143.533C205.484 143.579 205.422 143.609 205.355 143.618C205.288 143.627 205.219 143.615 205.16 143.584C205.1 143.552 205.053 143.503 205.024 143.443C204.995 143.384 204.986 143.316 204.999 143.251L205.053 142.952C205.065 142.887 205.055 142.821 205.026 142.762C204.997 142.703 204.95 142.654 204.891 142.623L204.615 142.476C204.554 142.446 204.504 142.397 204.474 142.337C204.443 142.277 204.433 142.209 204.445 142.143C204.458 142.077 204.491 142.017 204.541 141.971C204.591 141.925 204.655 141.896 204.723 141.889L205.029 141.848C205.095 141.839 205.157 141.81 205.205 141.765C205.254 141.719 205.286 141.66 205.298 141.595L205.358 141.296C205.366 141.228 205.396 141.165 205.444 141.115C205.492 141.066 205.556 141.034 205.625 141.025C205.694 141.015 205.765 141.029 205.825 141.063C205.885 141.097 205.932 141.15 205.958 141.214L205.952 141.22Z" fill="white"/>
        <path d="M217.203 149.839L217.263 150.138C217.277 150.202 217.312 150.26 217.361 150.305C217.41 150.349 217.473 150.377 217.539 150.385L217.851 150.42C217.92 150.426 217.985 150.453 218.036 150.498C218.088 150.543 218.124 150.603 218.137 150.669C218.151 150.736 218.142 150.805 218.112 150.866C218.082 150.927 218.032 150.976 217.97 151.007L217.695 151.154C217.637 151.188 217.591 151.238 217.563 151.298C217.536 151.357 217.527 151.424 217.539 151.489L217.605 151.788C217.619 151.853 217.612 151.921 217.585 151.981C217.557 152.042 217.51 152.092 217.451 152.125C217.392 152.158 217.324 152.171 217.257 152.164C217.19 152.156 217.127 152.127 217.077 152.082L216.85 151.876C216.801 151.831 216.738 151.802 216.672 151.793C216.605 151.785 216.537 151.798 216.478 151.829L216.202 151.982C216.144 152.014 216.077 152.026 216.011 152.018C215.945 152.011 215.883 151.983 215.834 151.939C215.785 151.895 215.751 151.836 215.738 151.773C215.724 151.709 215.731 151.642 215.759 151.583L215.89 151.301C215.917 151.241 215.924 151.174 215.91 151.11C215.896 151.046 215.862 150.987 215.812 150.943L215.585 150.737C215.534 150.693 215.5 150.634 215.486 150.569C215.472 150.504 215.48 150.437 215.508 150.377C215.536 150.316 215.583 150.266 215.642 150.234C215.701 150.202 215.769 150.189 215.836 150.197L216.148 150.232C216.214 150.241 216.281 150.228 216.34 150.196C216.398 150.165 216.444 150.116 216.472 150.056L216.604 149.774C216.632 149.715 216.679 149.666 216.737 149.634C216.796 149.602 216.863 149.589 216.93 149.597C216.996 149.605 217.058 149.633 217.107 149.677C217.157 149.722 217.19 149.781 217.203 149.845" fill="white"/>
        <path d="M201.594 148.189C201.224 147.872 200.789 147.638 200.317 147.502C199.845 147.383 199.36 147.316 198.873 147.302C200.431 145.494 202.469 142.664 203.356 139.54L203.572 139.646C203.452 141.184 202.835 143.269 201.102 145.97C201.029 146.086 200.986 146.218 200.978 146.354C200.969 146.491 200.996 146.627 201.055 146.751C201.285 147.213 201.473 147.694 201.618 148.189" fill="#2976CE"/>
        <path d="M202.661 162.967C198.82 163.048 195.036 162.047 191.757 160.085C192.087 160.085 192.411 160.085 192.734 160.085C193.334 160.085 193.981 160.085 194.605 160.008C194.868 160.008 195.126 159.961 195.384 159.932L196.169 159.844L196.559 159.797L196.948 159.738L197.728 159.615C199.833 159.295 201.874 158.653 203.776 157.713L204.477 157.319C204.705 157.178 204.927 157.02 205.155 156.873C205.597 156.557 206.014 156.208 206.401 155.828L206.545 155.687L206.683 155.54L206.953 155.235C207.045 155.134 207.129 155.026 207.205 154.912L207.45 154.583C207.528 154.477 207.594 154.354 207.666 154.243C207.738 154.131 207.816 154.014 207.876 153.89C207.99 153.644 208.128 153.409 208.224 153.156L208.374 152.775L208.493 152.393L208.553 152.199L208.595 152C208.595 151.87 208.661 151.735 208.685 151.606C208.776 151.08 208.822 150.548 208.823 150.015C208.826 149.485 208.761 148.956 208.631 148.442C208.557 148.151 208.455 147.868 208.326 147.596C208.709 148.091 209.039 148.625 209.309 149.187C209.376 149.325 209.484 149.44 209.619 149.517C209.754 149.594 209.909 149.629 210.065 149.618C210.221 149.606 210.369 149.549 210.491 149.453C210.613 149.357 210.702 149.228 210.747 149.082C211.135 147.638 211.906 146.321 212.983 145.265C212.983 145.265 212.905 145.887 212.905 146.839C212.899 147.623 213.156 148.387 213.635 149.015C214.115 149.642 214.791 150.099 215.561 150.315C215.511 150.376 215.487 150.454 215.494 150.533C215.5 150.611 215.537 150.684 215.597 150.737L215.824 150.943C215.874 150.987 215.908 151.046 215.922 151.11C215.936 151.174 215.929 151.241 215.902 151.301L215.771 151.583C215.749 151.63 215.739 151.682 215.743 151.734C215.746 151.786 215.763 151.836 215.792 151.88C215.821 151.923 215.86 151.96 215.906 151.985C215.953 152.01 216.005 152.023 216.058 152.023C216.113 152.024 216.167 152.01 216.214 151.982L216.49 151.829C216.538 151.806 216.592 151.794 216.646 151.794C216.685 151.793 216.725 151.8 216.762 151.814C216.799 151.828 216.833 151.849 216.862 151.876L217.089 152.082C217.146 152.134 217.221 152.164 217.299 152.164C217.347 152.164 217.394 152.154 217.437 152.134C217.48 152.114 217.518 152.085 217.548 152.049C217.578 152.013 217.6 151.971 217.612 151.926C217.624 151.881 217.626 151.834 217.617 151.788L217.551 151.489C217.539 151.424 217.548 151.357 217.575 151.298C217.603 151.238 217.649 151.188 217.707 151.154L217.982 151.007C218.044 150.976 218.094 150.927 218.124 150.866C218.154 150.805 218.163 150.736 218.149 150.669C218.135 150.603 218.1 150.543 218.048 150.498C217.997 150.453 217.931 150.426 217.863 150.42L217.551 150.385H217.443C217.944 150.262 218.414 150.038 218.822 149.727C220.23 148.646 221.869 147.889 223.617 147.514C224.746 147.265 225.773 146.693 226.568 145.87C227.364 145.047 227.891 144.011 228.083 142.893L228.149 142.987C228.245 143.134 228.341 143.281 228.425 143.427C228.914 145.137 228.895 146.948 228.371 148.647C227.775 150.827 226.698 152.853 225.215 154.58C223.731 156.307 221.878 157.693 219.787 158.64C215.501 160.636 209.111 162.967 202.661 162.967ZM192.704 158.946C192.303 158.946 191.901 158.946 191.506 158.904C191.021 158.87 190.54 158.8 190.067 158.693L189.689 158.581C189.384 158.329 189.09 158.059 188.79 157.783C188.386 157.413 188.004 157.021 187.645 156.609C187.636 156.507 187.636 156.405 187.645 156.303C187.67 155.96 187.747 155.621 187.873 155.299C189.638 154.658 191.308 153.787 192.836 152.71C193.81 153.712 194.683 154.804 195.444 155.969C195.525 156.107 195.642 156.221 195.783 156.301C195.924 156.38 196.084 156.421 196.247 156.421C196.433 156.42 196.615 156.365 196.769 156.262C196.876 156.186 196.996 156.11 197.122 156.033C197.194 156.074 197.256 156.13 197.302 156.198L197.614 156.644C197.664 156.719 197.732 156.781 197.813 156.823C197.894 156.865 197.984 156.886 198.075 156.885C198.149 156.886 198.221 156.874 198.29 156.848C198.358 156.822 198.42 156.783 198.473 156.733C198.526 156.683 198.568 156.624 198.598 156.558C198.627 156.493 198.643 156.422 198.645 156.35V155.81C198.647 155.694 198.687 155.582 198.759 155.49C198.832 155.398 198.932 155.331 199.046 155.299L199.58 155.147C199.707 155.111 199.817 155.033 199.891 154.925C199.964 154.818 199.996 154.688 199.982 154.56C201.622 153.907 203.373 153.565 205.143 153.55C205.686 153.551 206.228 153.586 206.767 153.655C206.425 154.164 206.023 154.631 205.568 155.047C204.852 155.704 204.044 156.259 203.17 156.697C201.373 157.564 199.45 158.158 197.47 158.458L196.715 158.576L196.343 158.64L195.965 158.681L195.21 158.769C194.958 158.769 194.701 158.822 194.449 158.84C193.849 158.887 193.25 158.916 192.65 158.916" fill="#2976CE"/>
        <path d="M198.075 156.879C197.984 156.88 197.894 156.859 197.813 156.817C197.732 156.775 197.664 156.713 197.614 156.638L197.32 156.192C197.274 156.124 197.212 156.068 197.14 156.027C198.049 155.455 199.013 154.972 200.017 154.583C200.032 154.712 200 154.841 199.927 154.949C199.853 155.056 199.743 155.135 199.616 155.17L199.082 155.323C198.968 155.354 198.868 155.421 198.795 155.513C198.723 155.605 198.683 155.718 198.681 155.834V156.374C198.679 156.446 198.663 156.516 198.634 156.582C198.604 156.648 198.562 156.707 198.509 156.757C198.456 156.806 198.394 156.845 198.326 156.871C198.257 156.897 198.184 156.91 198.111 156.908" fill="#B1B2D2"/>
        <path d="M217.287 152.158C217.209 152.158 217.134 152.129 217.077 152.076L216.85 151.87C216.821 151.843 216.787 151.822 216.75 151.808C216.713 151.794 216.673 151.787 216.634 151.788C216.58 151.788 216.526 151.8 216.478 151.823L216.202 151.976C216.155 152.004 216.101 152.018 216.046 152.017C215.993 152.017 215.941 152.004 215.894 151.979C215.848 151.954 215.809 151.918 215.78 151.874C215.751 151.83 215.734 151.78 215.731 151.728C215.727 151.676 215.737 151.624 215.759 151.577L215.89 151.295C215.917 151.235 215.924 151.168 215.91 151.104C215.896 151.04 215.862 150.981 215.812 150.937L215.585 150.731C215.525 150.678 215.488 150.605 215.482 150.527C215.475 150.449 215.499 150.371 215.549 150.309C215.886 150.405 216.235 150.454 216.586 150.455C216.87 150.454 217.154 150.421 217.431 150.356H217.539L217.851 150.391C217.92 150.396 217.985 150.423 218.036 150.468C218.088 150.513 218.124 150.574 218.137 150.64C218.151 150.706 218.142 150.775 218.112 150.836C218.082 150.897 218.032 150.947 217.97 150.978L217.695 151.125C217.637 151.158 217.591 151.208 217.563 151.268C217.536 151.328 217.527 151.395 217.539 151.459L217.605 151.759C217.614 151.805 217.612 151.852 217.6 151.897C217.588 151.942 217.566 151.984 217.536 152.02C217.506 152.056 217.468 152.085 217.425 152.104C217.382 152.124 217.335 152.135 217.287 152.135" fill="#B1B2D2"/>
        <path d="M228.065 142.864C227.541 142.13 226.895 141.489 226.153 140.967C223.569 139.124 221.441 138.507 219.559 138.507C217.677 138.507 215.962 139.124 214.302 139.74C212.642 140.357 210.951 140.967 209.063 140.967H208.805C206.977 140.895 205.185 140.442 203.548 139.64C203.563 139.368 203.563 139.096 203.548 138.824C205.186 139.584 206.964 140.01 208.775 140.075H209.063C211.047 140.075 212.785 139.429 214.458 138.807C216.13 138.184 217.707 137.632 219.505 137.632C221.303 137.632 223.311 138.219 225.763 139.981C226.751 140.659 227.543 141.575 228.065 142.641C228.065 142.717 228.065 142.799 228.065 142.875" fill="#C1E3FC"/>
        <path d="M203.548 139.646L203.314 139.54C203.38 139.3 203.44 139.053 203.494 138.807H203.542C203.557 139.078 203.557 139.351 203.542 139.623" fill="#BDD4EF"/>
        <path d="M228.407 143.398C228.323 143.251 228.227 143.104 228.131 142.958L228.065 142.864C228.065 142.787 228.065 142.705 228.065 142.629C228.185 142.879 228.289 143.136 228.377 143.398" fill="#BDD4EF"/>
        <path d="M213.912 139.03C213.732 139.106 213.523 139.206 213.313 139.306L213.019 139.458L212.731 139.617C212.346 139.83 211.974 140.065 211.616 140.321C211.262 140.578 210.931 140.865 210.627 141.179C210.326 141.506 210.041 141.849 209.776 142.206C209.766 142.215 209.754 142.22 209.74 142.22C209.727 142.22 209.714 142.215 209.704 142.206C209.701 142.2 209.699 142.193 209.699 142.186C209.699 142.178 209.701 142.171 209.704 142.165C209.735 141.681 209.89 141.213 210.154 140.803C210.417 140.395 210.722 140.015 211.065 139.67C211.403 139.325 211.77 139.009 212.162 138.724C212.354 138.578 212.552 138.443 212.761 138.313C212.971 138.179 213.187 138.056 213.409 137.943C213.552 137.872 213.718 137.859 213.871 137.907C214.024 137.956 214.151 138.062 214.224 138.202C214.297 138.342 214.31 138.505 214.261 138.655C214.212 138.804 214.103 138.929 213.96 139L213.912 139.03Z" fill="#020A70"/>
        <path d="M215.95 161.112L215.591 160.683C215.477 160.543 215.369 160.402 215.261 160.255C215.045 159.967 214.841 159.668 214.662 159.374C214.262 158.779 213.896 158.164 213.565 157.53C212.888 156.264 212.367 154.924 212.012 153.538C211.654 152.148 211.525 150.711 211.628 149.281C211.673 148.565 211.8 147.856 212.006 147.167C212.06 147.003 212.12 146.833 212.18 146.663C212.24 146.492 212.324 146.334 212.402 146.175L212.516 145.934L212.653 145.7C212.743 145.547 212.839 145.4 212.941 145.253C212.945 145.249 212.949 145.245 212.954 145.242C212.959 145.239 212.965 145.238 212.971 145.238C212.977 145.238 212.983 145.239 212.988 145.242C212.993 145.245 212.998 145.249 213.001 145.253C213.007 145.259 213.01 145.266 213.01 145.274C213.01 145.282 213.007 145.289 213.001 145.294C212.976 145.468 212.942 145.641 212.899 145.811L212.845 146.058L212.797 146.316C212.797 146.486 212.725 146.651 212.695 146.815C212.665 146.98 212.642 147.15 212.618 147.32C212.501 147.982 212.435 148.651 212.42 149.322C212.411 149.992 212.459 150.662 212.564 151.324C212.659 151.992 212.805 152.651 213.001 153.297C213.198 153.939 213.428 154.57 213.691 155.188C213.96 155.81 214.29 156.415 214.59 157.008C214.889 157.601 215.273 158.182 215.657 158.74C215.848 159.016 216.04 159.327 216.256 159.562L216.568 159.967C216.67 160.096 216.778 160.231 216.873 160.343C216.925 160.402 216.964 160.471 216.989 160.545C217.013 160.619 217.022 160.697 217.016 160.775C217.009 160.852 216.987 160.928 216.95 160.997C216.913 161.066 216.863 161.127 216.802 161.177C216.742 161.228 216.673 161.267 216.597 161.292C216.522 161.317 216.443 161.327 216.363 161.322C216.284 161.316 216.207 161.295 216.136 161.26C216.065 161.225 216.002 161.177 215.95 161.118V161.112Z" fill="#020A70"/>
        <path d="M207.954 147.027C208.277 147.456 208.508 147.945 208.631 148.465C208.761 148.98 208.826 149.508 208.823 150.039C208.83 150.571 208.792 151.103 208.709 151.63C208.709 151.759 208.649 151.894 208.619 152.023L208.577 152.223L208.517 152.416L208.398 152.798L208.248 153.18C208.152 153.432 208.014 153.667 207.9 153.914C207.84 154.037 207.762 154.149 207.69 154.266C207.618 154.383 207.552 154.501 207.474 154.607L207.229 154.935C207.153 155.049 207.069 155.157 206.977 155.258L206.707 155.564L206.569 155.71L206.425 155.851C206.038 156.231 205.621 156.58 205.179 156.896C204.951 157.043 204.729 157.202 204.501 157.343L203.8 157.736C201.891 158.679 199.841 159.321 197.728 159.638L196.948 159.762L196.559 159.82L196.169 159.867L195.384 159.955C195.126 159.955 194.868 160.014 194.605 160.032C193.543 160.114 192.477 160.114 191.416 160.032C190.869 159.989 190.326 159.907 189.791 159.785C189.235 159.662 188.698 159.465 188.197 159.198C187.653 158.92 187.195 158.505 186.872 157.994C186.709 157.715 186.594 157.412 186.53 157.096C186.5 156.945 186.482 156.792 186.476 156.638C186.464 156.49 186.464 156.34 186.476 156.192C186.525 155.621 186.675 155.062 186.92 154.542C187.143 154.048 187.414 153.576 187.729 153.133C188.36 152.276 189.097 151.499 189.923 150.819C191.552 149.434 193.459 148.398 195.522 147.778C196.552 147.461 197.625 147.301 198.705 147.302C199.251 147.301 199.795 147.368 200.323 147.502C200.854 147.644 201.339 147.917 201.732 148.295C201.739 148.3 201.745 148.307 201.75 148.315C201.754 148.324 201.756 148.333 201.756 148.342C201.756 148.351 201.754 148.36 201.75 148.368C201.745 148.376 201.739 148.383 201.732 148.389C201.715 148.396 201.695 148.396 201.678 148.389C201.138 148.336 200.653 148.265 200.167 148.207C198.702 147.976 197.2 148.122 195.809 148.629C194.865 148.948 193.959 149.365 193.106 149.874C192.252 150.373 191.449 150.951 190.708 151.6C189.964 152.238 189.302 152.961 188.736 153.755C188.462 154.139 188.228 154.548 188.035 154.976C187.844 155.378 187.728 155.809 187.693 156.251C187.684 156.352 187.684 156.454 187.693 156.556C187.696 156.655 187.708 156.753 187.729 156.849C187.767 157.04 187.838 157.222 187.939 157.39C188.155 157.733 188.461 158.013 188.826 158.2C189.231 158.416 189.665 158.577 190.115 158.675C190.588 158.782 191.069 158.853 191.554 158.887C192.552 158.954 193.554 158.942 194.551 158.852C194.802 158.852 195.06 158.81 195.312 158.781L196.067 158.693L196.445 158.652L196.817 158.587L197.572 158.47C199.552 158.17 201.475 157.576 203.272 156.708C204.146 156.271 204.953 155.715 205.67 155.059C206.373 154.409 206.939 153.631 207.337 152.769L207.48 152.446L207.51 152.123L207.57 151.959L207.618 151.782C207.618 151.671 207.684 151.559 207.708 151.442C207.814 150.975 207.879 150.499 207.9 150.021C207.9 149.539 207.9 149.064 207.9 148.577C207.9 148.089 207.852 147.59 207.84 147.073C207.84 147.056 207.847 147.039 207.859 147.026C207.871 147.013 207.888 147.005 207.906 147.003C207.914 146.999 207.924 146.997 207.933 146.997C207.942 146.997 207.951 146.999 207.96 147.003" fill="#211C75"/>
        <path d="M189.665 137.938C186.123 139.875 184.27 142.928 184.163 147.015C184.129 149.028 184.523 151.025 185.319 152.881C186.116 154.737 187.298 156.41 188.79 157.795C192.854 161.629 197.782 162.967 202.661 162.967C209.111 162.967 215.501 160.619 219.787 158.64C221.88 157.686 223.733 156.292 225.213 154.556C226.694 152.821 227.766 150.787 228.353 148.6C229.36 144.79 228.496 141.883 225.793 139.951C220.89 136.429 217.779 137.603 214.488 138.777C212.689 139.429 210.891 140.104 208.787 140.04C206.492 139.95 204.258 139.296 202.289 138.137C200.385 137.035 198.222 136.433 196.01 136.391C193.798 136.349 191.612 136.867 189.665 137.896M202.643 164.159C197.494 164.159 192.279 162.738 187.945 158.652C186.329 157.153 185.049 155.341 184.186 153.332C183.323 151.322 182.897 149.159 182.934 146.98C183.054 142.511 185.17 139.024 189.054 136.898C191.185 135.77 193.577 135.2 195.999 135.244C198.421 135.288 200.79 135.945 202.877 137.151C204.672 138.213 206.71 138.818 208.805 138.912C210.669 138.965 212.306 138.366 214.044 137.738C217.491 136.47 221.058 135.155 226.488 139.036C229.593 141.255 230.636 144.678 229.486 148.941C228.853 151.294 227.699 153.482 226.105 155.349C224.512 157.216 222.518 158.717 220.266 159.744C215.902 161.77 209.309 164.153 202.643 164.159Z" fill="#020A70"/>
        <path d="M194.976 125.884C194.976 125.884 197.17 123.699 199.772 126.048C202.373 128.396 201.912 131.643 200.971 132.818C200.029 133.992 194.976 125.884 194.976 125.884Z" fill="#FDD9B7"/>
        <path d="M195.768 126.019C197.566 128.849 199.736 131.814 200.563 132.283C201.042 131.319 201.18 130.226 200.957 129.176C200.733 128.127 200.16 127.179 199.328 126.482C197.746 125.044 196.391 125.596 195.732 126.019M200.677 133.528H200.611C200.011 133.487 199.13 133.006 196.793 129.712C195.552 127.95 194.467 126.189 194.455 126.189C194.385 126.076 194.355 125.943 194.372 125.812C194.388 125.681 194.449 125.56 194.545 125.467C195.444 124.568 197.782 123.447 200.161 125.613C202.901 128.115 202.631 131.679 201.396 133.188C201.311 133.295 201.202 133.382 201.078 133.441C200.953 133.5 200.816 133.53 200.677 133.528Z" fill="#020A70"/>
        <path d="M172.953 147.297C172.953 147.297 170.711 149.434 173.085 151.994C175.459 154.554 178.78 154.137 179.99 153.168C181.201 152.199 172.953 147.297 172.953 147.297Z" fill="#FDD9B7"/>
        <path d="M173.085 148.072C172.653 148.659 172.072 150.015 173.535 151.594C174.239 152.416 175.203 152.985 176.274 153.211C177.345 153.438 178.463 153.309 179.451 152.845C178.971 152.023 175.962 149.857 173.085 148.095M177.449 154.471C176.543 154.464 175.648 154.271 174.822 153.905C173.996 153.539 173.258 153.008 172.653 152.346C170.46 149.997 171.628 147.725 172.552 146.844C172.648 146.753 172.773 146.695 172.907 146.681C173.04 146.667 173.175 146.698 173.289 146.768C173.289 146.768 175.087 147.854 176.885 149.082C180.23 151.395 180.716 152.281 180.752 152.845C180.762 152.992 180.736 153.14 180.676 153.275C180.615 153.41 180.522 153.528 180.404 153.62C179.54 154.213 178.502 154.512 177.449 154.471Z" fill="#020A70"/>
        <path d="M196.475 148.935C196.475 148.935 184.198 161.611 176.616 151.418C176.616 151.418 169.926 146.798 168.823 139.951C168.224 136.153 169.285 131.679 174.176 126.923C187.879 113.595 199.166 129.5 199.166 129.5C200.883 130.641 202.165 132.307 202.811 134.239C204.963 141.179 196.487 148.917 196.487 148.917" fill="#FDD9B7"/>
        <path d="M183.893 154.789H183.359C180.92 154.636 178.816 153.391 177.107 151.084C177.058 151.031 177.001 150.986 176.939 150.949C176.873 150.908 171.197 146.915 169.626 141.02C171.544 143.146 176.526 147.813 184.252 147.813C185.551 147.806 186.846 147.676 188.119 147.426C188.347 147.841 188.635 148.22 188.976 148.553C189.79 149.36 190.863 149.866 192.015 149.986C192.042 150.015 192.07 150.042 192.099 150.068C192.443 150.41 192.85 150.685 193.298 150.878C190.954 152.64 187.411 154.777 183.899 154.777M193.933 150.385C193.633 150.295 193.349 150.162 193.088 149.992C193.852 149.916 194.589 149.669 195.24 149.269C194.898 149.581 194.455 149.962 193.933 150.385ZM196.846 147.713C197.257 147.076 197.513 146.355 197.596 145.606C197.768 145.862 197.903 146.141 197.997 146.434C197.56 146.944 197.164 147.379 196.846 147.713ZM198.519 145.829C198.324 145.391 198.047 144.993 197.704 144.654L197.62 144.572C197.585 144.235 197.515 143.903 197.41 143.58C199.951 141.831 201.749 139.23 202.463 136.27C202.463 136.393 202.523 136.517 202.547 136.64C202.547 140.075 200.323 143.527 198.495 145.811" fill="#B097A0"/>
        <path d="M202.463 136.27C202.427 136.129 202.391 135.994 202.349 135.853C201.722 133.986 200.499 132.366 198.861 131.232C198.759 131.156 198.668 131.068 198.591 130.968C196.776 128.625 194.511 126.65 191.925 125.155C191.817 125.096 191.696 125.063 191.571 125.062C191.487 125.064 191.404 125.082 191.326 125.114C190.86 125.281 190.365 125.356 189.869 125.337C189.079 125.328 188.292 125.23 187.525 125.044C186.278 124.832 185.109 124.306 184.133 123.517C184.065 123.452 183.984 123.399 183.896 123.364C183.807 123.329 183.713 123.311 183.617 123.312H183.533C180.506 123.658 177.179 125.161 173.69 128.549C172.951 129.262 172.26 130.021 171.622 130.821C172.481 129.563 173.47 128.395 174.572 127.334C178.138 123.94 181.735 122.179 185.445 122.179C185.799 122.179 186.147 122.179 186.5 122.226C193.628 122.871 198.609 129.77 198.657 129.811C198.694 129.866 198.741 129.913 198.795 129.952C201.096 131.62 202.355 133.657 202.523 136C202.523 136.088 202.481 136.176 202.463 136.264" fill="#FFF3E9"/>
        <path d="M202.547 136.658C202.547 136.534 202.493 136.411 202.463 136.288C202.433 136.164 202.505 136.112 202.523 136.023C202.526 136.059 202.526 136.094 202.523 136.129C202.523 136.305 202.523 136.481 202.523 136.658" fill="#E7DFE2"/>
        <path d="M192.884 131.344C193.019 131.979 192.977 132.638 192.764 133.252C192.558 133.884 192.205 134.461 191.733 134.937C191.613 135.061 191.488 135.166 191.362 135.278C191.236 135.389 191.098 135.483 190.954 135.571C190.813 135.661 190.667 135.744 190.516 135.818C189.775 136.182 188.946 136.342 188.119 136.282C188.113 136.282 188.107 136.281 188.102 136.279C188.096 136.276 188.091 136.272 188.088 136.268C188.084 136.263 188.082 136.258 188.081 136.252C188.08 136.246 188.081 136.24 188.083 136.235C188.078 136.224 188.078 136.211 188.083 136.2C188.646 135.9 189.18 135.613 189.665 135.313C189.728 135.279 189.789 135.239 189.845 135.196L190.025 135.078C190.139 134.984 190.259 134.914 190.367 134.82C190.577 134.648 190.778 134.463 190.966 134.268C191.362 133.869 191.708 133.426 191.997 132.947C192.307 132.436 192.572 131.899 192.788 131.344H192.884Z" fill="#020A70"/>
        <path d="M178.546 145.253C179.113 145.045 179.66 144.79 180.182 144.49C180.676 144.213 181.132 143.877 181.543 143.492C181.753 143.307 181.953 143.111 182.142 142.905C182.232 142.799 182.31 142.682 182.406 142.576L182.526 142.4C182.571 142.344 182.611 142.285 182.646 142.224C182.97 141.748 183.245 141.231 183.569 140.68C183.573 140.676 183.578 140.673 183.583 140.67C183.588 140.668 183.593 140.667 183.599 140.667C183.605 140.667 183.61 140.668 183.615 140.67C183.62 140.673 183.625 140.676 183.629 140.68C183.632 140.685 183.634 140.691 183.634 140.697C183.634 140.703 183.632 140.709 183.629 140.715C183.683 141.356 183.584 142.001 183.341 142.599C183.287 142.752 183.209 142.893 183.143 143.046C183.078 143.198 182.982 143.333 182.886 143.468C182.793 143.608 182.69 143.741 182.58 143.868C182.47 143.993 182.354 144.112 182.232 144.226C181.744 144.685 181.153 145.027 180.506 145.224C179.878 145.431 179.205 145.468 178.558 145.33L178.546 145.253Z" fill="#020A70"/>
        <path d="M189.473 139.505C189.144 139.629 188.874 139.74 188.586 139.869C188.338 139.988 188.11 140.142 187.909 140.327C187.719 140.512 187.565 140.729 187.453 140.967C187.328 141.214 187.232 141.502 187.1 141.83C187.094 141.836 187.087 141.839 187.079 141.839C187.071 141.839 187.063 141.836 187.058 141.83C186.888 141.511 186.827 141.147 186.884 140.791C186.94 140.411 187.131 140.062 187.423 139.805C187.708 139.554 188.063 139.393 188.442 139.341C188.798 139.285 189.163 139.332 189.491 139.476L189.473 139.505Z" fill="#020A70"/>
        <path d="M185.445 122.179C181.735 122.179 178.138 123.94 174.59 127.34C170.735 131.092 168.955 135.002 169.297 138.977C169.896 145.97 176.891 150.884 176.939 150.949C176.993 150.987 177.041 151.033 177.083 151.084C178.792 153.391 180.896 154.607 183.335 154.789C189.527 155.164 195.971 148.6 196.037 148.53V148.5C196.109 148.442 202.865 142.171 202.505 136.129C202.367 133.74 201.108 131.673 198.771 129.976C198.717 129.937 198.67 129.889 198.633 129.835C198.609 129.77 193.628 122.872 186.53 122.237C186.147 122.208 185.799 122.179 185.445 122.179ZM183.899 155.975C183.695 155.975 183.491 155.975 183.299 155.975C180.518 155.798 178.126 154.419 176.202 151.865C175.321 151.23 168.703 146.252 168.086 139.071C167.714 134.738 169.614 130.504 173.738 126.5C177.862 122.496 182.19 120.664 186.614 121.057C193.963 121.715 198.974 128.232 199.598 129.078C202.187 130.986 203.584 133.334 203.74 136.065C204.124 142.582 197.35 148.946 196.906 149.357C196.463 149.768 190.313 155.975 183.899 155.975Z" fill="#020A70"/>
        <path d="M189.282 148.265C189.928 148.898 190.752 149.329 191.648 149.503C192.544 149.677 193.473 149.587 194.318 149.244C195.162 148.901 195.883 148.321 196.391 147.577C196.898 146.833 197.169 145.958 197.169 145.063C197.169 144.167 196.898 143.292 196.391 142.548C195.883 141.804 195.162 141.224 194.318 140.881C193.473 140.538 192.544 140.448 191.648 140.622C190.752 140.796 189.928 141.227 189.282 141.86C188.851 142.28 188.51 142.779 188.277 143.328C188.044 143.878 187.924 144.467 187.924 145.063C187.924 145.658 188.044 146.247 188.277 146.797C188.51 147.346 188.851 147.845 189.282 148.265Z" fill="#26DAFC"/>
        <path d="M192.567 149.187H192.219C191.843 148.654 191.644 148.021 191.649 147.373C191.803 147.382 191.957 147.382 192.111 147.373C193.031 147.374 193.931 147.105 194.694 146.602C195.458 146.099 196.051 145.384 196.397 144.549C196.517 144.613 196.631 144.684 196.745 144.76C196.788 145.325 196.711 145.892 196.519 146.427C196.328 146.961 196.025 147.451 195.631 147.866C195.237 148.28 194.76 148.611 194.23 148.836C193.699 149.061 193.127 149.177 192.549 149.175M191.326 148.999C190.552 148.763 189.864 148.313 189.346 147.702C188.828 147.092 188.502 146.347 188.406 145.559C188.537 145.729 188.679 145.889 188.832 146.04C189.424 146.611 190.161 147.016 190.966 147.214C190.963 147.253 190.963 147.293 190.966 147.332C190.965 147.899 191.09 148.46 191.332 148.976" fill="#1899D1"/>
        <path d="M188.4 144.637C188.507 143.72 188.925 142.864 189.588 142.208C190.251 141.552 191.12 141.134 192.055 141.02C192.99 140.907 193.937 141.106 194.744 141.584C195.55 142.062 196.168 142.792 196.499 143.656C196.348 143.449 196.182 143.252 196.001 143.069C195.132 142.222 193.955 141.746 192.728 141.746C191.502 141.746 190.325 142.222 189.455 143.069C188.991 143.517 188.632 144.058 188.4 144.654" fill="#B3F3FD"/>
        <path d="M192.567 140.967C191.597 140.973 190.66 141.307 189.913 141.913C189.167 142.519 188.658 143.359 188.472 144.291C188.287 145.223 188.436 146.189 188.896 147.025C189.355 147.861 190.096 148.516 190.992 148.877C191.889 149.239 192.885 149.286 193.813 149.009C194.74 148.733 195.541 148.15 196.08 147.361C196.618 146.571 196.861 145.624 196.767 144.678C196.673 143.733 196.248 142.849 195.564 142.177C195.171 141.791 194.704 141.485 194.189 141.277C193.675 141.069 193.123 140.964 192.567 140.967ZM192.567 150.021C191.396 150.018 190.263 149.618 189.36 148.888C188.458 148.158 187.842 147.144 187.618 146.019C187.394 144.894 187.576 143.727 188.132 142.719C188.688 141.71 189.585 140.922 190.668 140.489C191.752 140.056 192.956 140.004 194.073 140.344C195.191 140.683 196.154 141.392 196.798 142.349C197.442 143.307 197.726 144.453 197.603 145.593C197.479 146.733 196.956 147.796 196.121 148.6C195.174 149.52 193.894 150.035 192.561 150.033" fill="#020A70"/>
        <path d="M194.886 144.196C194.355 144.198 193.832 144.327 193.364 144.573C192.896 144.819 192.497 145.174 192.202 145.607C191.907 146.039 191.726 146.537 191.673 147.054C191.621 147.572 191.699 148.095 191.902 148.576C192.104 149.057 192.425 149.481 192.834 149.813C193.244 150.144 193.731 150.371 194.251 150.474C194.772 150.578 195.311 150.554 195.82 150.405C196.329 150.257 196.792 149.987 197.17 149.622C197.625 149.181 197.936 148.619 198.065 148.006C198.194 147.392 198.134 146.755 197.894 146.175C197.653 145.594 197.243 145.097 196.714 144.745C196.185 144.393 195.562 144.202 194.922 144.196M194.922 151.242C193.879 151.242 192.879 150.836 192.142 150.114C191.404 149.392 190.99 148.412 190.99 147.391C190.99 146.369 191.404 145.389 192.142 144.667C192.879 143.945 193.879 143.539 194.922 143.539C195.965 143.539 196.965 143.945 197.703 144.667C198.44 145.389 198.855 146.369 198.855 147.391C198.855 148.412 198.44 149.392 197.703 150.114C196.965 150.836 195.965 151.242 194.922 151.242Z" fill="#020A70"/>
        <path d="M191.134 146.463C191.416 146.739 191.774 146.927 192.165 147.003C192.556 147.079 192.961 147.04 193.329 146.891C193.697 146.742 194.012 146.489 194.233 146.165C194.455 145.84 194.573 145.459 194.573 145.068C194.573 144.678 194.455 144.297 194.233 143.972C194.012 143.648 193.697 143.395 193.329 143.246C192.961 143.096 192.556 143.057 192.165 143.134C191.774 143.21 191.416 143.398 191.134 143.674C190.946 143.857 190.797 144.074 190.696 144.313C190.594 144.553 190.542 144.809 190.542 145.068C190.542 145.328 190.594 145.584 190.696 145.823C190.797 146.063 190.946 146.28 191.134 146.463Z" fill="#FDE157"/>
        <path d="M192.567 147.05C192.262 147.047 191.962 146.975 191.691 146.839C191.963 146.971 192.263 147.039 192.567 147.038" fill="#1899D1"/>
        <path d="M192.567 147.05C192.262 147.047 191.962 146.975 191.691 146.839C191.484 146.742 191.295 146.611 191.134 146.451C190.788 146.1 190.588 145.635 190.57 145.148L190.696 145.283C190.981 145.563 191.346 145.753 191.742 145.828C192.139 145.903 192.549 145.86 192.92 145.703C193.291 145.547 193.605 145.285 193.822 144.951C194.039 144.618 194.149 144.228 194.137 143.832C194.427 144.176 194.589 144.606 194.597 145.052C194.604 145.498 194.457 145.934 194.179 146.287H194.125H194.059C193.874 146.471 193.654 146.618 193.412 146.718C193.169 146.819 192.908 146.872 192.644 146.874" fill="#B09D5A"/>
        <path d="M191.446 146.169C191.591 146.314 191.765 146.429 191.956 146.506C192.148 146.584 192.353 146.623 192.561 146.621C192.963 146.597 193.34 146.424 193.616 146.136C193.892 145.849 194.046 145.469 194.046 145.074C194.046 144.68 193.892 144.3 193.616 144.012C193.34 143.725 192.963 143.551 192.561 143.527C192.248 143.528 191.943 143.618 191.683 143.788C191.424 143.958 191.221 144.2 191.101 144.482C190.981 144.765 190.95 145.076 191.01 145.376C191.07 145.676 191.22 145.952 191.44 146.169H191.446ZM192.567 147.473C192.245 147.472 191.927 147.409 191.631 147.287C191.335 147.165 191.066 146.987 190.84 146.762C190.383 146.312 190.126 145.703 190.126 145.068C190.126 144.434 190.383 143.825 190.84 143.374C191.3 142.927 191.923 142.677 192.572 142.679C193.221 142.681 193.842 142.935 194.299 143.386C194.756 143.837 195.011 144.447 195.009 145.083C195.007 145.718 194.747 146.326 194.287 146.774C194.062 146.997 193.794 147.174 193.499 147.294C193.203 147.414 192.886 147.475 192.567 147.473Z" fill="#020A70"/>
        <path d="M175.591 128.937C174.875 128.554 174.181 128.135 173.511 127.68C172.827 127.229 172.179 126.726 171.574 126.177C171.253 125.886 170.966 125.561 170.717 125.208C170.576 125.012 170.461 124.799 170.376 124.574C170.273 124.3 170.244 124.005 170.292 123.717C170.355 123.416 170.514 123.142 170.747 122.936C170.944 122.764 171.169 122.627 171.413 122.531C171.669 122.427 171.946 122.383 172.222 122.402C172.491 122.418 172.753 122.492 172.989 122.619C173.421 122.847 173.776 123.191 174.014 123.611C174.26 124.015 174.398 124.474 174.416 124.944C174.422 125.204 174.373 125.461 174.272 125.702C174.156 125.938 173.978 126.141 173.756 126.289C173.543 126.434 173.299 126.53 173.043 126.57C172.815 126.608 172.584 126.62 172.354 126.606C171.927 126.568 171.506 126.479 171.101 126.341C170.711 126.213 170.328 126.062 169.956 125.889C169.588 125.716 169.232 125.52 168.889 125.302C168.534 125.097 168.215 124.835 167.948 124.527C168.36 124.597 168.762 124.713 169.147 124.874C169.512 125.02 169.86 125.197 170.22 125.332C170.573 125.477 170.936 125.6 171.305 125.702C171.658 125.803 172.022 125.86 172.39 125.872C172.696 125.894 173.001 125.818 173.259 125.655C173.357 125.571 173.431 125.465 173.477 125.346C173.522 125.227 173.535 125.099 173.517 124.973C173.488 124.669 173.384 124.375 173.214 124.118C173.044 123.861 172.812 123.649 172.54 123.5C172.427 123.445 172.303 123.416 172.177 123.416C172.051 123.416 171.927 123.445 171.814 123.5C171.691 123.55 171.578 123.624 171.485 123.717C171.419 123.773 171.375 123.85 171.359 123.934C171.355 124.033 171.373 124.131 171.413 124.222C171.47 124.36 171.544 124.49 171.634 124.609C171.848 124.891 172.091 125.151 172.36 125.384C173.532 126.364 174.805 127.22 176.16 127.939C176.291 128.02 176.384 128.147 176.421 128.294C176.458 128.441 176.435 128.597 176.357 128.728C176.28 128.859 176.154 128.956 176.006 128.998C175.857 129.04 175.698 129.024 175.561 128.954L175.591 128.937Z" fill="#020A70"/>
        <path d="M168.547 151.788C187.657 142.241 195.612 159.932 195.612 159.932C204.645 150.385 215.105 158.088 215.105 158.088C219.979 144.402 233.088 149.61 233.088 149.61C233.088 149.61 231.614 159.039 216.406 162.104C216.137 162.305 215.846 162.475 215.537 162.609C200.317 166.801 184.402 163.425 171.742 154.125L168.553 151.777L168.547 151.788Z" fill="white"/>
        <path d="M195.612 160.525H195.522C195.422 160.509 195.328 160.469 195.249 160.409C195.169 160.348 195.106 160.269 195.066 160.179C195.03 160.108 191.727 152.939 184.516 150.432C179.859 148.811 174.584 149.451 168.835 152.323C168.692 152.394 168.526 152.407 168.373 152.359C168.22 152.31 168.093 152.204 168.02 152.064C167.947 151.924 167.933 151.761 167.983 151.611C168.032 151.462 168.14 151.337 168.284 151.266C174.338 148.23 179.937 147.573 184.924 149.311C191.254 151.536 194.677 156.891 195.773 158.916C200.461 154.378 205.448 154.178 208.865 154.847C210.971 155.28 212.983 156.075 214.805 157.196C216.352 153.285 218.744 150.596 221.927 149.181C227.364 146.768 233.088 148.988 233.316 149.082C233.39 149.11 233.458 149.154 233.514 149.209C233.571 149.263 233.617 149.329 233.647 149.401C233.678 149.473 233.694 149.551 233.693 149.629C233.693 149.707 233.677 149.785 233.646 149.857C233.617 149.929 233.573 149.995 233.518 150.051C233.462 150.107 233.396 150.151 233.323 150.182C233.25 150.213 233.172 150.229 233.092 150.229C233.013 150.23 232.934 150.215 232.86 150.185C232.776 150.15 227.346 148.066 222.394 150.268C219.343 151.63 217.077 154.331 215.663 158.306C215.632 158.395 215.58 158.475 215.512 158.541C215.443 158.606 215.359 158.654 215.267 158.681C215.175 158.707 215.078 158.713 214.983 158.696C214.889 158.68 214.799 158.643 214.722 158.587C212.866 157.337 210.772 156.466 208.565 156.027C203.854 155.094 199.64 156.55 196.061 160.343C196.004 160.403 195.934 160.451 195.857 160.484C195.779 160.516 195.696 160.532 195.612 160.531V160.525Z" fill="#020A70"/>
      </g>
      <path d="M88.6663 223.846C88.6663 222.86 87.6555 222.114 86.4347 221.329C83.7809 219.574 82.039 217.521 82.0053 214.442C81.8991 208.297 91.3877 213.775 91.3177 219.819L88.3527 218.107C88.3527 216.232 85.074 214.501 84.9751 216.115C84.9052 217.142 85.8123 217.888 86.9052 218.659C89.3298 220.362 91.7013 222.094 91.7013 225.606C91.7013 231.529 81.7592 225.95 81.8292 219.787L84.8473 221.529C84.8473 223.332 88.6663 225.487 88.6663 223.846ZM89.6603 217.572C88.3527 213.979 83.3129 211.793 83.3877 215.241C83.4383 217.685 84.9052 218.902 86.6832 220.082C88.372 221.199 90.0608 222.213 90.0608 224.651C90.0608 227.774 85.1416 225.558 83.764 222.205L83.5541 222.084C84.8087 225.686 90.2514 228.179 90.2514 224.761C90.2514 222.254 88.4902 221.064 86.7122 219.879C85.0017 218.749 83.5758 217.603 83.5758 215.349C83.559 212.178 88.1114 214.16 89.4191 217.433L89.6603 217.572Z" fill="white"/>
      <path d="M93.986 231.126V217.028L99.3588 220.13C105.202 223.523 105.202 233.997 99.3588 230.624L97.1079 229.324V232.929L93.986 231.126ZM99.3757 221.671L95.4335 219.395V230.614L95.6266 230.725V226.959L99.3757 229.123C103.248 231.317 103.267 223.918 99.3757 221.671ZM99.3757 221.853C102.994 223.942 103.04 230.997 99.3757 228.881L95.6266 226.717V219.688L99.3757 221.853ZM99.3419 223.343C98.6181 222.906 97.8244 222.467 97.1079 222.053V226.081L99.3419 227.371C101.048 228.356 101.156 224.41 99.3419 223.343Z" fill="white"/>
      <path d="M111.272 237.945V241.106L105.081 237.532V234.37L106.633 235.266V227.466L105.202 226.64V223.503L111.149 226.937V230.079L109.733 229.261V237.061L111.272 237.945ZM106.249 236.535V236.736L110.085 238.95V238.75L108.285 237.711V226.977L109.96 227.944V227.751L106.406 225.7V225.903L108.095 226.878V237.601L106.249 236.535Z" fill="white"/>
      <path d="M117.919 244.944L113.313 242.285V228.186L117.919 230.845C125.87 235.478 125.87 249.496 117.919 244.944ZM114.83 241.651L117.882 243.413C123.952 246.918 123.952 235.839 117.882 232.334L114.83 230.572V241.651ZM117.882 232.549L114.987 230.877V241.519L117.882 243.19C123.742 246.554 123.742 235.96 117.882 232.537V232.549ZM116.435 233.284L117.919 234.141C121.808 236.386 121.808 243.908 117.919 241.662L116.435 240.806V233.284Z" fill="white"/>
      <path d="M131.627 252.858L128.551 251.082V245.171L124.449 235.159V234.616L127.815 236.559L130.03 242.531L130.153 242.602L132.367 239.187L135.745 241.137V241.68L131.627 246.947V252.858ZM129.998 245.533V250.57L130.189 250.68V245.643L133.607 241.254L133.376 241.12L130.097 245.356L126.802 237.325L126.575 237.194L129.998 245.533Z" fill="white"/>
      <path d="M147.61 262.086L144.413 260.241V254.58L140.645 252.404V258.065L137.453 256.222V242.123L140.645 243.966V249.089L144.413 251.265V246.142L147.61 247.987V262.086ZM139.127 255.818V249.999L145.921 253.921V259.741L146.095 259.841V248.464L145.921 248.363V253.679L139.118 249.751V244.435L138.925 244.324V255.701L139.127 255.818Z" fill="white"/>
      <path d="M149.977 256.427C149.977 246.677 162.5 253.907 162.5 263.657C162.5 273.408 149.977 266.191 149.977 256.427ZM160.983 262.781C160.983 255.207 151.511 249.76 151.511 257.313C151.511 264.865 160.983 270.35 160.983 262.781ZM151.687 257.414C151.687 264.786 160.809 269.91 160.809 262.681C160.809 255.452 151.687 250.06 151.687 257.414ZM159.308 261.815C159.308 266.929 153.185 263.394 153.185 258.279C153.185 253.165 159.308 256.736 159.308 261.815Z" fill="white"/>
      <path d="M170.838 271.288C170.838 270.301 169.827 269.556 168.604 268.769C165.95 267.014 164.211 264.962 164.174 261.883C164.071 255.739 173.559 261.217 173.489 267.261L170.529 265.552C170.529 263.677 167.248 261.944 167.152 263.56C167.082 264.586 167.989 265.333 169.082 266.103C171.494 267.8 173.878 269.538 173.878 273.051C173.878 278.974 163.936 273.395 164.006 267.231L167.024 268.974C167.019 270.774 170.838 272.928 170.838 271.288ZM171.832 265.014C170.524 261.42 165.482 259.234 165.559 262.682C165.612 265.128 167.077 266.344 168.857 267.525C170.546 268.642 172.235 269.657 172.235 272.094C172.235 275.217 167.316 273.001 165.938 269.648L165.728 269.527C166.985 273.13 172.428 275.624 172.428 272.206C172.428 269.698 170.664 268.507 168.886 267.322C167.178 266.194 165.764 265.054 165.764 262.801C165.747 259.629 170.3 261.611 171.608 264.884L171.832 265.014Z" fill="white"/>
      <path d="M174.954 266.997V263.774L184.023 269.01V272.233L181.041 270.512V281.376L177.955 279.595V268.73L174.954 266.997ZM179.593 279.203C179.593 275.496 179.576 271.822 179.559 268.127L182.833 270.017V269.825L176.121 265.95V266.134L179.419 268.038V279.103L179.593 279.203Z" fill="white"/>
      <path d="M64.8593 203.694C64.8838 203.561 64.9013 203.421 64.9328 203.296C65.013 202.946 65.1781 202.674 65.413 202.507C65.754 202.274 66.0482 201.969 66.2891 201.596C66.3661 201.485 66.4216 201.348 66.4539 201.191C66.5124 200.894 66.4967 200.543 66.4083 200.17C66.3729 200.051 66.3307 199.932 66.2821 199.813C66.2611 199.757 66.2296 199.7 66.2085 199.641C66.3487 199.803 66.4723 199.989 66.5713 200.187C66.8152 200.67 66.9517 201.177 66.9585 201.624C66.9647 202.064 66.8632 202.435 66.6659 202.694C66.4955 202.956 66.2967 203.184 66.0719 203.373C65.8739 203.543 65.7813 203.853 65.8143 204.236C65.8378 204.548 65.9251 204.887 66.0683 205.22C66.1679 205.458 66.3189 205.681 66.4955 205.849C66.6721 206.017 66.8631 206.12 67.0356 206.141C67.1032 206.155 67.166 206.152 67.2203 206.131C67.2745 206.109 67.3193 206.071 67.3519 206.017C67.3844 205.963 67.4042 205.895 67.4101 205.817C67.416 205.739 67.4078 205.652 67.3861 205.562C67.3307 205.276 67.2318 204.981 67.0952 204.694C66.9866 204.461 66.8674 204.233 66.7447 203.996C66.7255 203.956 66.7044 203.916 66.6834 203.877L66.6939 203.861C66.8271 203.997 66.962 204.127 67.0899 204.27C67.4474 204.651 67.7595 205.11 67.9959 205.602C68.1467 205.933 68.2425 206.271 68.2745 206.587C68.3376 207.178 68.3376 207.74 68.2745 208.258C68.243 208.56 68.1921 208.846 68.1571 209.143C68.1589 209.231 68.1695 209.324 68.1886 209.419C68.2423 210.014 68.373 210.641 68.5759 211.275C68.7379 211.803 68.9959 212.331 69.3241 212.804C69.7509 213.414 70.2691 213.906 70.7996 214.204C71.297 214.475 71.7701 214.512 72.1208 214.307C72.3778 214.165 72.5915 213.952 72.7534 213.675C72.806 213.557 72.8294 213.411 72.8218 213.247C72.8236 212.642 72.6673 211.96 72.3732 211.288C72.0776 210.592 71.7066 209.914 71.2762 209.283C70.9888 208.854 70.6857 208.442 70.4001 208.014C69.7487 207.057 69.1572 206.051 68.6372 205.014C68.145 204.027 67.8158 203.001 67.6805 202.033C67.5671 201.33 67.6052 200.69 67.7909 200.183C67.9341 199.819 68.1757 199.562 68.4918 199.438C68.513 199.432 68.5313 199.42 68.5461 199.403C67.9765 199.418 67.5389 199.742 67.3195 200.313L67.302 200.303C67.302 200.246 67.302 200.19 67.302 200.133C67.3338 199.796 67.4286 199.506 67.5806 199.282C67.8841 198.832 68.3028 198.533 68.8072 198.406C69.168 198.291 69.5596 198.242 69.9742 198.261C70.4177 198.295 70.8933 198.447 71.3761 198.708C72.2997 199.184 73.2133 200.012 73.9713 201.062L74.0659 201.191C73.7154 200.275 73.6471 199.533 74.0063 199.02L74.0256 199.031V199.129C74.0296 199.601 74.1123 200.113 74.2692 200.637C74.3566 200.93 74.4952 201.224 74.6722 201.491C74.737 201.585 74.8089 201.673 74.879 201.764L74.8912 201.761C74.8865 201.738 74.8806 201.715 74.8737 201.692C74.7477 201.296 74.6877 200.909 74.6985 200.561C74.7156 200.147 74.8686 199.833 75.1278 199.682C75.1611 199.663 75.1979 199.644 75.2242 199.618L75.2434 199.641C75.2434 199.67 75.2277 199.687 75.2207 199.711C74.9999 200.488 75.1208 201.374 75.6868 202.408C76.0755 203.102 76.4047 203.823 76.6646 204.549C76.7499 204.798 76.809 205.045 76.8398 205.282C76.9202 205.838 77.165 206.436 77.525 206.954C77.5933 207.056 77.6669 207.155 77.7387 207.254C77.7993 207.326 77.8456 207.415 77.8685 207.503C77.8915 207.591 77.8896 207.672 77.8632 207.73C77.822 207.828 77.758 207.901 77.6757 207.943C77.4941 208.043 77.2896 208.101 77.0676 208.114C76.8924 208.131 76.7171 208.139 76.5419 208.149C76.5174 208.149 76.4876 208.174 76.4578 208.1C76.428 208.026 76.4753 208.048 76.4964 208.04C76.687 207.987 76.8374 207.856 76.9327 207.66C76.9768 207.566 76.9954 207.447 76.987 207.313L76.7294 207.367V206.962C76.7259 206.92 76.7259 206.879 76.7294 206.841C76.7372 206.784 76.733 206.719 76.7173 206.65C76.7015 206.581 76.6745 206.511 76.6383 206.444C76.5767 206.295 76.4942 206.151 76.3967 206.022C76.2992 205.893 76.1891 205.782 76.074 205.698C75.9672 205.633 75.8604 205.58 75.7551 205.54C75.7291 205.535 75.7069 205.542 75.692 205.56C75.6447 205.6 75.6098 205.657 75.5895 205.729C75.5693 205.801 75.5641 205.885 75.5742 205.976C75.5844 206.068 75.6098 206.165 75.6487 206.262C75.6877 206.358 75.7394 206.452 75.8007 206.537C75.8982 206.675 76.0013 206.806 76.1091 206.93C76.1739 207.01 76.1792 207.015 76.1459 207.074C76.0674 207.203 75.9393 207.266 75.7832 207.254C75.5415 207.237 75.2771 207.136 75.0139 206.959C74.872 206.877 74.73 206.767 74.5881 206.669V206.646L74.6599 206.641C74.7822 206.644 74.8895 206.606 74.9736 206.531C75.0388 206.485 75.0779 206.401 75.0846 206.292C75.0912 206.183 75.0651 206.056 75.0104 205.931C74.9235 205.696 74.7869 205.471 74.6214 205.288C74.3907 205.044 74.1724 204.775 73.9713 204.488C73.9432 204.449 73.9169 204.406 73.8889 204.365C73.7454 204.153 73.6481 203.911 73.6158 203.686C73.5834 203.46 73.6183 203.267 73.7137 203.143L73.7435 203.093C73.6261 203.125 73.5414 203.219 73.5034 203.359C73.4613 203.487 73.4386 203.634 73.4053 203.772C73.313 203.613 73.2034 203.467 73.0828 203.341C72.7686 203.021 72.4211 202.821 72.1068 202.778C71.9579 202.748 71.8142 202.744 71.6547 202.719C71.6732 202.675 71.6948 202.635 71.7196 202.599C71.8378 202.467 72.0032 202.407 72.1962 202.425C72.2698 202.427 72.3469 202.439 72.4205 202.439C71.8194 202.053 71.2692 201.863 70.8434 202.166C70.6358 202.33 70.4984 202.593 70.4456 202.93C70.4136 203.069 70.3954 203.22 70.3913 203.38C70.3956 203.515 70.4157 203.658 70.4509 203.805C70.5866 204.403 70.8234 205.017 71.143 205.6C71.5486 206.348 72.032 207.051 72.5694 207.674C72.9379 208.096 73.3157 208.5 73.7014 208.884C74.4124 209.603 75.0664 210.441 75.629 211.355C75.7678 211.592 75.8989 211.833 76.0215 212.077C76.2177 212.458 76.414 212.838 76.5927 213.216C77.1918 214.478 77.5199 215.781 77.5285 216.933C77.5285 216.933 77.5285 216.95 77.5144 216.954C77.5039 216.909 77.4917 216.866 77.4829 216.824C77.3712 216.264 77.202 215.689 76.98 215.117C76.8967 214.927 76.8047 214.739 76.7049 214.554C76.6807 214.508 76.649 214.468 76.6138 214.437C76.633 214.492 76.6523 214.55 76.6698 214.604C76.8799 215.258 77.0137 215.904 77.0659 216.517C77.1592 217.541 76.9916 218.425 76.5857 219.048C76.5226 219.145 76.4823 219.269 76.4245 219.374C76.1012 219.919 75.6233 220.27 75.0349 220.392C74.4188 220.527 73.727 220.477 72.997 220.246C72.5694 220.125 72.1332 219.958 71.6933 219.746C71.365 219.581 71.0356 219.384 70.7085 219.155C70.2322 218.827 69.7623 218.443 69.3066 218.012C68.3446 217.106 67.4753 215.977 66.7798 214.732C66.5353 214.319 66.3036 213.899 66.0859 213.473C65.7014 212.691 65.4334 211.881 65.3026 211.107C65.1711 210.271 65.2363 209.52 65.4901 208.949C65.5409 208.829 65.6022 208.718 65.6653 208.607C65.6758 208.589 65.6898 208.573 65.6986 208.56C65.6986 208.815 65.6846 209.063 65.6881 209.322C65.6898 209.588 65.7307 209.874 65.809 210.167C65.8292 210.244 65.8538 210.321 65.8826 210.398C65.9316 210.543 66.0122 210.684 66.1121 210.801C66.2121 210.917 66.3259 211.002 66.4363 211.043C66.5737 211.111 66.7092 211.158 66.8394 211.181C66.9743 211.205 67.0919 211.173 67.1764 211.09C67.261 211.006 67.3084 210.874 67.3125 210.711C67.3398 210.283 67.2434 209.784 67.0374 209.288C66.7927 208.681 66.508 208.08 66.1875 207.494C66.0964 207.33 65.9912 207.179 65.8949 207.014C65.4565 206.301 65.1333 205.526 64.9591 204.772C64.9171 204.578 64.9013 204.392 64.8715 204.201C64.8715 204.179 64.8715 204.157 64.8593 204.127V203.694Z" fill="white"/>
      <path d="M76.7121 204.656C76.6886 204.522 76.6709 204.39 76.6591 204.26C76.6471 203.974 76.6926 203.722 76.7918 203.524C76.9003 203.28 77.033 203.056 77.1223 202.801C77.2309 202.539 77.2842 202.225 77.2791 201.874C77.282 201.762 77.2606 201.637 77.217 201.51C77.1733 201.383 77.1087 201.257 77.0287 201.144C76.9487 201.032 76.8558 200.935 76.7581 200.863C76.6605 200.791 76.561 200.746 76.4685 200.732C76.3976 200.713 76.3339 200.721 76.2858 200.757C76.2376 200.793 76.2071 200.854 76.1983 200.933C76.178 201.007 76.1791 201.097 76.2013 201.195C76.2235 201.293 76.2659 201.393 76.3237 201.484C76.3638 201.546 76.4126 201.599 76.4644 201.636C76.5161 201.673 76.5686 201.694 76.6156 201.695L76.7387 201.713C76.7067 201.751 76.6637 201.774 76.613 201.779C76.5624 201.784 76.5054 201.771 76.4468 201.742C76.3882 201.712 76.3295 201.667 76.2755 201.609C76.2214 201.551 76.1735 201.483 76.1355 201.409C76.0603 201.265 76.0103 201.114 75.9907 200.971C75.9712 200.829 75.9829 200.701 76.0246 200.601C76.0591 200.501 76.1232 200.433 76.2088 200.403C76.2945 200.374 76.3981 200.386 76.5071 200.437C76.6578 200.505 76.8101 200.603 76.9582 200.725C77.1093 200.859 77.2434 201.038 77.3404 201.235C77.4374 201.433 77.4921 201.639 77.4962 201.821C77.5203 202.343 77.4244 202.793 77.2188 203.124C77.1126 203.327 76.9775 203.5 76.8786 203.707C76.7388 203.937 76.6897 204.262 76.7387 204.635C76.7396 204.647 76.7396 204.658 76.7387 204.669L76.7121 204.656Z" fill="white"/>
      <path d="M77.9039 202.113C77.9561 202.441 77.9292 202.735 77.8267 202.957C77.7851 203.059 77.7359 203.153 77.6796 203.239L77.0041 204.267C76.9903 204.288 76.9693 204.299 76.9437 204.299C77.0209 204.155 77.0933 204.004 77.185 203.882C77.3322 203.618 77.4769 203.354 77.6313 203.1C77.7981 202.844 77.8915 202.506 77.9039 202.113Z" fill="white"/>
    </g>
    <path d="M186.245 44.7658V46.5993H178.778V44.7658H186.245ZM195.99 53V35.9315H202.824C204.08 35.9315 205.127 36.1177 205.966 36.4899C206.805 36.8622 207.436 37.3789 207.858 38.0401C208.28 38.6957 208.492 39.4514 208.492 40.307C208.492 40.9737 208.358 41.5599 208.092 42.0655C207.825 42.5656 207.458 42.9767 206.991 43.299C206.53 43.6157 206.002 43.8407 205.408 43.974V44.1407C206.058 44.1685 206.666 44.3519 207.233 44.6908C207.805 45.0297 208.269 45.5048 208.625 46.1159C208.981 46.7216 209.158 47.4439 209.158 48.2828C209.158 49.1885 208.933 49.9969 208.483 50.7081C208.039 51.4137 207.38 51.9721 206.508 52.3833C205.636 52.7944 204.561 53 203.283 53H195.99ZM199.599 50.0497H202.541C203.547 50.0497 204.28 49.858 204.741 49.4746C205.202 49.0857 205.433 48.569 205.433 47.9245C205.433 47.4522 205.319 47.0355 205.091 46.6743C204.863 46.3132 204.538 46.0298 204.116 45.8242C203.699 45.6187 203.202 45.5159 202.624 45.5159H199.599V50.0497ZM199.599 43.074H202.274C202.769 43.074 203.208 42.9878 203.591 42.8156C203.98 42.6378 204.286 42.3878 204.508 42.0655C204.736 41.7433 204.85 41.3571 204.85 40.9071C204.85 40.2903 204.63 39.7931 204.191 39.4152C203.758 39.0374 203.141 38.8485 202.341 38.8485H199.599V43.074ZM215.09 53.2417C214.273 53.2417 213.546 53.1 212.907 52.8166C212.268 52.5277 211.762 52.1027 211.39 51.5415C211.023 50.9748 210.84 50.2692 210.84 49.4246C210.84 48.7134 210.97 48.1162 211.231 47.6328C211.493 47.1494 211.848 46.7605 212.298 46.466C212.748 46.1715 213.259 45.9493 213.832 45.7992C214.41 45.6492 215.015 45.5437 215.649 45.4825C216.393 45.4048 216.993 45.3325 217.449 45.2659C217.904 45.1936 218.235 45.0881 218.441 44.9492C218.646 44.8102 218.749 44.6047 218.749 44.3324V44.2824C218.749 43.7546 218.582 43.3462 218.249 43.0573C217.921 42.7684 217.454 42.6239 216.849 42.6239C216.21 42.6239 215.701 42.7656 215.324 43.049C214.946 43.3268 214.696 43.6768 214.573 44.0991L211.29 43.8324C211.456 43.0545 211.784 42.3822 212.273 41.8155C212.762 41.2432 213.393 40.8043 214.165 40.4987C214.943 40.1875 215.843 40.032 216.865 40.032C217.577 40.032 218.257 40.1153 218.907 40.282C219.563 40.4487 220.143 40.707 220.649 41.0571C221.16 41.4071 221.563 41.8572 221.858 42.4072C222.152 42.9517 222.299 43.6046 222.299 44.3658V53H218.932V51.2248H218.832C218.627 51.6249 218.352 51.9777 218.007 52.2833C217.663 52.5833 217.249 52.8194 216.765 52.9917C216.282 53.1584 215.724 53.2417 215.09 53.2417ZM216.107 50.7914C216.629 50.7914 217.09 50.6886 217.49 50.4831C217.89 50.2719 218.204 49.9886 218.432 49.633C218.66 49.2774 218.774 48.8746 218.774 48.4245V47.066C218.663 47.1383 218.51 47.2049 218.316 47.2661C218.127 47.3216 217.913 47.3744 217.674 47.4244C217.435 47.4689 217.196 47.5105 216.957 47.5494C216.718 47.5828 216.501 47.6133 216.307 47.6411C215.89 47.7022 215.526 47.7995 215.215 47.9328C214.904 48.0661 214.662 48.2467 214.49 48.4745C214.318 48.6968 214.232 48.9746 214.232 49.3079C214.232 49.7913 214.407 50.1608 214.757 50.4164C215.112 50.6664 215.562 50.7914 216.107 50.7914ZM225.12 53V35.9315H228.671V42.3489H228.779C228.935 42.0044 229.16 41.6544 229.454 41.2988C229.754 40.9376 230.143 40.6376 230.621 40.3987C231.104 40.1542 231.704 40.032 232.421 40.032C233.355 40.032 234.216 40.2764 235.005 40.7654C235.794 41.2488 236.424 41.9794 236.897 42.9573C237.369 43.9296 237.605 45.1492 237.605 46.616C237.605 48.0439 237.374 49.2496 236.913 50.233C236.458 51.2109 235.835 51.9527 235.046 52.4583C234.263 52.9583 233.385 53.2084 232.413 53.2084C231.724 53.2084 231.138 53.0945 230.654 52.8667C230.176 52.6389 229.785 52.3527 229.479 52.0082C229.174 51.6582 228.94 51.3054 228.779 50.9498H228.621V53H225.12ZM228.596 46.5993C228.596 47.3605 228.701 48.0245 228.912 48.5912C229.124 49.1579 229.429 49.5996 229.829 49.9163C230.229 50.2275 230.715 50.3831 231.288 50.3831C231.866 50.3831 232.355 50.2247 232.755 49.908C233.155 49.5858 233.457 49.1413 233.663 48.5745C233.874 48.0023 233.98 47.3438 233.98 46.5993C233.98 45.8604 233.877 45.2103 233.671 44.6491C233.466 44.088 233.163 43.649 232.763 43.3323C232.363 43.0156 231.871 42.8573 231.288 42.8573C230.71 42.8573 230.221 43.0101 229.821 43.3156C229.426 43.6212 229.124 44.0546 228.912 44.6158C228.701 45.177 228.596 45.8381 228.596 46.5993ZM241.753 57.8005C241.303 57.8005 240.881 57.7644 240.487 57.6922C240.098 57.6255 239.775 57.5394 239.52 57.4338L240.32 54.7835C240.737 54.9113 241.112 54.9808 241.445 54.9919C241.784 55.003 242.076 54.9252 242.32 54.7585C242.57 54.5918 242.773 54.3085 242.929 53.9084L243.137 53.3667L238.545 40.1987H242.278L244.929 49.5996H245.062L247.737 40.1987H251.496L246.521 54.3835C246.282 55.0724 245.957 55.6725 245.545 56.1837C245.14 56.7004 244.626 57.0977 244.004 57.3755C243.381 57.6588 242.631 57.8005 241.753 57.8005ZM258.811 53V35.9315H265.546C266.84 35.9315 267.943 36.1788 268.854 36.6733C269.765 37.1622 270.46 37.8428 270.938 38.7152C271.421 39.5819 271.663 40.582 271.663 41.7155C271.663 42.8489 271.418 43.849 270.929 44.7158C270.44 45.5826 269.732 46.2576 268.804 46.741C267.882 47.2244 266.765 47.4661 265.454 47.4661H261.162V44.5741H264.87C265.565 44.5741 266.137 44.4547 266.587 44.2157C267.043 43.9713 267.382 43.6351 267.604 43.2073C267.832 42.7739 267.946 42.2766 267.946 41.7155C267.946 41.1488 267.832 40.6543 267.604 40.232C267.382 39.8042 267.043 39.4736 266.587 39.2402C266.132 39.0013 265.554 38.8818 264.854 38.8818H262.42V53H258.811ZM277.491 35.9315V53H273.94V35.9315H277.491ZM283.985 53.2417C283.168 53.2417 282.44 53.1 281.801 52.8166C281.162 52.5277 280.657 52.1027 280.285 51.5415C279.918 50.9748 279.734 50.2692 279.734 49.4246C279.734 48.7134 279.865 48.1162 280.126 47.6328C280.387 47.1494 280.743 46.7605 281.193 46.466C281.643 46.1715 282.154 45.9493 282.726 45.7992C283.304 45.6492 283.91 45.5437 284.543 45.4825C285.288 45.4048 285.888 45.3325 286.344 45.2659C286.799 45.1936 287.13 45.0881 287.335 44.9492C287.541 44.8102 287.644 44.6047 287.644 44.3324V44.2824C287.644 43.7546 287.477 43.3462 287.144 43.0573C286.816 42.7684 286.349 42.6239 285.743 42.6239C285.105 42.6239 284.596 42.7656 284.218 43.049C283.84 43.3268 283.59 43.6768 283.468 44.0991L280.185 43.8324C280.351 43.0545 280.679 42.3822 281.168 41.8155C281.657 41.2432 282.288 40.8043 283.06 40.4987C283.838 40.1875 284.738 40.032 285.76 40.032C286.471 40.032 287.152 40.1153 287.802 40.282C288.458 40.4487 289.038 40.707 289.544 41.0571C290.055 41.4071 290.458 41.8572 290.752 42.4072C291.047 42.9517 291.194 43.6046 291.194 44.3658V53H287.827V51.2248H287.727C287.521 51.6249 287.246 51.9777 286.902 52.2833C286.557 52.5833 286.144 52.8194 285.66 52.9917C285.177 53.1584 284.618 53.2417 283.985 53.2417ZM285.002 50.7914C285.524 50.7914 285.985 50.6886 286.385 50.4831C286.785 50.2719 287.099 49.9886 287.327 49.633C287.555 49.2774 287.669 48.8746 287.669 48.4245V47.066C287.558 47.1383 287.405 47.2049 287.21 47.2661C287.021 47.3216 286.807 47.3744 286.569 47.4244C286.33 47.4689 286.091 47.5105 285.852 47.5494C285.613 47.5828 285.396 47.6133 285.202 47.6411C284.785 47.7022 284.421 47.7995 284.11 47.9328C283.799 48.0661 283.557 48.2467 283.385 48.4745C283.213 48.6968 283.127 48.9746 283.127 49.3079C283.127 49.7913 283.302 50.1608 283.652 50.4164C284.007 50.6664 284.457 50.7914 285.002 50.7914ZM297.499 45.5992V53H293.948V40.1987H297.332V42.4572H297.482C297.766 41.7127 298.241 41.1237 298.907 40.6904C299.574 40.2514 300.383 40.032 301.333 40.032C302.222 40.032 302.997 40.2264 303.658 40.6154C304.319 41.0043 304.833 41.5599 305.2 42.2822C305.566 42.9989 305.75 43.8546 305.75 44.8491V53H302.199V45.4825C302.205 44.6991 302.005 44.088 301.599 43.649C301.194 43.2045 300.635 42.9823 299.924 42.9823C299.446 42.9823 299.024 43.0851 298.657 43.2906C298.296 43.4962 298.013 43.7963 297.807 44.1907C297.607 44.5797 297.504 45.0492 297.499 45.5992Z" fill="#5C5692"/>
    <path d="M100.031 52.8185C100.273 51.9209 100.513 51.023 100.754 50.1249C101.743 46.4183 102.731 42.7123 103.72 39.0069C103.911 38.2912 104.101 37.5754 104.292 36.8597C104.515 36.0217 105.213 35.4676 106.079 35.4636C107.619 35.4569 109.159 35.4436 110.697 35.4661C113.878 35.5123 116.388 37.8452 116.93 40.7325C117.133 41.8157 117.021 42.8671 116.707 43.9106C116.162 45.7252 115.084 47.1064 113.377 47.9694C112.681 48.3211 111.941 48.5422 111.159 48.5943C110.705 48.6251 110.248 48.6251 109.792 48.6275C108.802 48.6319 107.812 48.6275 106.821 48.6275H106.621C106.691 48.3448 106.753 48.0935 106.817 47.8431C106.998 47.1409 107.179 46.4384 107.363 45.7369C107.587 44.8868 108.278 44.354 109.164 44.347C109.574 44.3439 109.985 44.3359 110.396 44.3485C111.374 44.3793 112.381 43.7122 112.666 42.5878C112.746 42.2785 112.761 41.956 112.709 41.6407C112.658 41.3253 112.542 41.0241 112.368 40.7563C112.193 40.4884 111.965 40.2598 111.698 40.0849C111.431 39.91 111.13 39.7927 110.815 39.7405C110.663 39.7179 110.51 39.7076 110.356 39.7097C109.613 39.7067 108.869 39.7122 108.125 39.7048C107.984 39.7048 107.934 39.7513 107.899 39.8831C106.867 43.7466 105.833 47.6097 104.797 51.4723C104.628 52.1062 104.233 52.5389 103.62 52.7739C103.593 52.7866 103.567 52.8016 103.543 52.8185H100.031Z" fill="#5C5692"/>
    <path d="M149.843 52.8185C149.653 52.764 149.458 52.7212 149.272 52.6528C147.932 52.1601 147.135 51.2013 146.868 49.8059C146.756 49.2207 146.859 48.65 147.016 48.0812C147.458 46.4812 147.843 44.8641 148.326 43.2767C148.899 41.3947 150.197 40.2438 152.127 39.8292C152.445 39.7609 152.777 39.7405 153.103 39.7393C155.027 39.731 156.951 39.7347 158.875 39.7353C160.467 39.7353 161.919 40.8542 162.319 42.3895C162.485 43.0102 162.485 43.6634 162.319 44.2841C162.183 44.8028 162.046 45.3214 161.901 45.8376C161.583 46.9651 160.537 47.8114 159.365 47.8918C159.13 47.9078 158.894 47.9167 158.658 47.917C156.683 47.9191 154.708 47.9191 152.733 47.917H152.529C152.576 47.7323 152.615 47.5715 152.658 47.411C152.758 47.0415 152.858 46.6719 152.96 46.3023C153.17 45.5379 153.823 45.0251 154.62 45.0177C155.482 45.0097 156.345 45.0153 157.207 45.0147C157.635 45.0147 157.77 44.9127 157.88 44.4988C157.924 44.3325 157.992 44.1668 157.919 43.9894C157.839 43.7941 157.704 43.6679 157.488 43.6438C157.417 43.6344 157.345 43.6289 157.273 43.6275C156.02 43.6275 154.768 43.6275 153.517 43.6275C152.915 43.6275 152.506 43.9561 152.352 44.5434C152.285 44.8006 152.214 45.0562 152.146 45.3134C151.904 46.2269 151.678 47.1446 151.416 48.0526C151.268 48.5666 151.678 48.9648 152.114 48.9629C155.023 48.9512 157.932 48.9571 160.841 48.9571H161.047C161.03 49.0458 161.02 49.1234 160.999 49.1985C160.796 49.9531 160.595 50.7076 160.386 51.4613C160.203 52.1163 159.784 52.5533 159.139 52.7726C159.107 52.7859 159.076 52.8012 159.046 52.8185H149.843Z" fill="#5C5692"/>
    <path d="M119.827 52.8185C119.631 52.7877 119.432 52.7686 119.239 52.7261C117.696 52.3855 116.726 51.4406 116.31 49.9263C115.952 48.6167 116.469 46.7196 117.666 45.7947C118.357 45.2604 119.14 44.9808 120.015 44.9795C121.94 44.9766 123.863 44.9766 125.787 44.9795C125.985 44.9795 125.988 44.9841 125.936 45.1788C125.815 45.6327 125.694 46.0866 125.572 46.5404C125.351 47.3633 124.606 47.9084 123.808 47.8939C122.936 47.8779 122.063 47.8893 121.19 47.8911C120.941 47.8911 120.766 48.0143 120.693 48.2281C120.613 48.4628 120.666 48.6808 120.866 48.8108C120.969 48.8774 121.087 48.9148 121.21 48.9192C122.62 48.9264 124.031 48.9273 125.442 48.922C125.811 48.922 126.043 48.7372 126.131 48.4061C126.427 47.306 126.723 46.2062 127.02 45.1067C127.112 44.7679 127.204 44.4267 127.297 44.0864C127.363 43.84 127.237 43.646 126.983 43.6118C126.897 43.6013 126.809 43.5967 126.722 43.5979C124.465 43.5979 122.208 43.5979 119.95 43.5979C119.233 43.5995 118.677 43.3208 118.316 42.6974C118.051 42.2413 118.018 41.7488 118.152 41.2431C118.272 40.7889 118.395 40.3352 118.514 39.8806C118.54 39.7839 118.57 39.7236 118.695 39.7239C121.917 39.7288 125.139 39.719 128.36 39.7362C129.346 39.7414 130.157 40.1926 130.815 40.9065C131.53 41.6814 131.848 42.6143 131.746 43.6577C131.699 44.1409 131.546 44.6158 131.42 45.0889C130.923 46.9546 130.429 48.8212 129.91 50.6808C129.598 51.8037 128.835 52.4871 127.71 52.7751C127.667 52.7862 127.625 52.8059 127.583 52.8194L119.827 52.8185Z" fill="#5C5692"/>
    <path d="M131.218 52.8185C131.146 52.7697 131.078 52.7168 131.012 52.6599C130.777 52.432 130.692 52.1672 130.779 51.8382C131.542 48.9765 132.302 46.114 133.058 43.2506C133.35 42.1499 133.644 41.0501 133.932 39.9481C133.967 39.8138 134.014 39.7593 134.165 39.7596C136.125 39.7658 138.084 39.7596 140.043 39.7655C141.456 39.7701 142.718 40.2309 143.831 41.0861C145.171 42.1148 145.972 43.4776 146.253 45.1376C146.407 46.0461 146.345 46.9491 146.101 47.8407C145.741 49.1613 145.383 50.4822 145.041 51.8071C144.92 52.2777 144.656 52.5989 144.21 52.7773C144.188 52.7888 144.167 52.8027 144.148 52.8185H141.099C141.086 52.8033 141.071 52.7896 141.055 52.7776C140.662 52.5358 140.541 52.2315 140.659 51.7871C141.09 50.1579 141.529 48.5302 141.949 46.898C142.021 46.6314 142.046 46.3544 142.022 46.0794C141.897 44.8721 140.89 43.987 139.67 43.9851C138.931 43.9833 138.192 43.9906 137.453 43.9802C137.287 43.978 137.223 44.0313 137.182 44.1871C136.505 46.7452 135.825 49.3022 135.143 51.8583C135.061 52.1662 134.914 52.4283 134.648 52.6106C134.535 52.688 134.413 52.7505 134.294 52.8198L131.218 52.8185Z" fill="#5C5692"/>
    <path d="M96.5528 52.8185C96.36 52.7754 96.1653 52.7387 95.9747 52.6876C93.4185 52.0027 91.7745 50.403 91.1515 47.8216C90.6331 45.6734 91.4816 42.9429 93.1407 41.4704C94.149 40.5751 95.3042 40.0041 96.6445 39.8258C96.9491 39.7859 97.2558 39.7656 97.5629 39.7652C99.1121 39.7593 100.662 39.7627 102.211 39.7627H102.405C102.354 39.9687 102.309 40.1597 102.26 40.3497C102.067 41.091 101.88 41.8338 101.678 42.5727C101.477 43.3115 101.006 43.7772 100.251 43.9364C100.108 43.9672 99.9556 43.9623 99.8072 43.9629C99.1198 43.9654 98.4324 43.9672 97.7437 43.9629C97.1376 43.9592 96.5839 44.1095 96.1284 44.5225C95.4092 45.1745 95.137 45.9882 95.3865 46.9247C95.6415 47.8813 96.2968 48.4646 97.2778 48.6007C97.8223 48.6762 98.3831 48.6315 98.9365 48.6423C99.0385 48.6445 99.1444 48.6423 99.2408 48.6694C99.3375 48.6955 99.4282 48.7404 99.5076 48.8015C99.587 48.8626 99.6535 48.9388 99.7034 49.0257C99.7533 49.1125 99.7856 49.2084 99.7985 49.3078C99.8113 49.4071 99.8044 49.508 99.7782 49.6047C99.5084 50.6269 99.2316 51.6473 98.9581 52.6685C98.9448 52.7178 98.9341 52.7677 98.922 52.8173L96.5528 52.8185Z" fill="#5C5692"/>
    <path d="M161.141 52.8185C161.303 52.201 161.462 51.5826 161.626 50.966C162.565 47.4475 163.504 43.929 164.444 40.4107C164.797 39.0878 165.149 37.765 165.501 36.4424C165.663 35.8412 166.146 35.471 166.795 35.4636C167.554 35.4553 168.314 35.459 169.074 35.4636C169.323 35.4636 169.547 35.5434 169.719 35.7377C169.741 35.7571 169.766 35.7737 169.792 35.787V36.8628C169.766 36.9231 169.742 36.9848 169.722 37.0476C169.532 37.7522 169.344 38.4575 169.154 39.1624C168.306 42.3072 167.469 45.4551 166.605 48.5952C165.998 50.7979 164.541 52.1499 162.338 52.7221C162.215 52.7529 162.094 52.7874 161.973 52.82L161.141 52.8185Z" fill="#5C5692"/>
  </g>
  <defs>
    <filter id="filter0_d_0_1" x="4.3256" y="59.1628" width="391.349" height="318.442" filterUnits="userSpaceOnUse" color-interpolation-filters="sRGB">
      <feFlood flood-opacity="0" result="BackgroundImageFix"/>
      <feColorMatrix in="SourceAlpha" type="matrix" values="0 0 0 0 0 0 0 0 0 0 0 0 0 0 0 0 0 0 127 0" result="hardAlpha"/>
      <feOffset dy="22.8372"/>
      <feGaussianBlur stdDeviation="22.8372"/>
      <feComposite in2="hardAlpha" operator="out"/>
      <feColorMatrix type="matrix" values="0 0 0 0 0.0941176 0 0 0 0 0.168627 0 0 0 0 0.490196 0 0 0 0.29 0"/>
      <feBlend mode="normal" in2="BackgroundImageFix" result="effect1_dropShadow_0_1"/>
      <feBlend mode="normal" in="SourceGraphic" in2="effect1_dropShadow_0_1" result="shape"/>
    </filter>
    <linearGradient id="paint0_linear_0_1" x1="200" y1="0" x2="200" y2="400" gradientUnits="userSpaceOnUse">
      <stop stop-color="#BDC1FF"/>
      <stop offset="1" stop-color="#B4C0FF"/>
    </linearGradient>
    <linearGradient id="paint1_linear_0_1" x1="-50.8378" y1="-53.6051" x2="245.559" y2="242.791" gradientUnits="userSpaceOnUse">
      <stop stop-color="#0763BD"/>
      <stop offset="1" stop-color="#172A7C"/>
    </linearGradient>
    <linearGradient id="paint2_linear_0_1" x1="43.8831" y1="12.6209" x2="622.141" y2="590.879" gradientUnits="userSpaceOnUse">
      <stop offset="0.04" stop-color="#E3EBFF"/>
      <stop offset="1" stop-color="#978EF0"/>
    </linearGradient>
    <linearGradient id="paint3_linear_0_1" x1="225.966" y1="254.978" x2="237.489" y2="261.054" gradientUnits="userSpaceOnUse">
      <stop stop-color="#FFE30B"/>
      <stop offset="1" stop-color="#FF712F"/>
    </linearGradient>
    <linearGradient id="paint4_linear_0_1" x1="254.26" y1="240.598" x2="265.8" y2="246.672" gradientUnits="userSpaceOnUse">
      <stop stop-color="#FFE30B"/>
      <stop offset="1" stop-color="#FF712F"/>
    </linearGradient>
    <linearGradient id="paint5_linear_0_1" x1="282.581" y1="226.202" x2="294.115" y2="232.294" gradientUnits="userSpaceOnUse">
      <stop stop-color="#FFE30B"/>
      <stop offset="1" stop-color="#FF712F"/>
    </linearGradient>
    <linearGradient id="paint6_linear_0_1" x1="310.876" y1="211.856" x2="322.416" y2="217.93" gradientUnits="userSpaceOnUse">
      <stop stop-color="#FFE30B"/>
      <stop offset="1" stop-color="#FF712F"/>
    </linearGradient>
    <linearGradient id="paint7_linear_0_1" x1="163.88" y1="104.632" x2="318.785" y2="258.756" gradientUnits="userSpaceOnUse">
      <stop offset="0.04" stop-color="#E3EBFF"/>
      <stop offset="1" stop-color="#978EF0"/>
    </linearGradient>
    <linearGradient id="paint8_linear_0_1" x1="-12.9813" y1="23.5188" x2="189.527" y2="226.295" gradientUnits="userSpaceOnUse">
      <stop offset="0.04" stop-color="#E3EBFF"/>
      <stop offset="1" stop-color="#978EF0"/>
    </linearGradient>
    <clipPath id="clip0_0_1">
      <rect width="400" height="400" fill="white"/>
    </clipPath>
  </defs>
</svg>
